<svg width="161" height="161" viewBox="0 0 161 161" fill="none" xmlns="http://www.w3.org/2000/svg">
<path d="M161 80.5C161 81.8176 160.97 83.1352 160.906 84.4494C160.839 85.767 160.742 87.0812 160.614 88.3921C160.484 89.703 160.323 91.0105 160.132 92.3113C159.937 93.6155 159.713 94.913 159.454 96.2037C159.196 97.4978 158.908 98.7819 158.589 100.059C158.268 101.34 157.919 102.607 157.537 103.868C157.151 105.128 156.739 106.379 156.296 107.619C155.85 108.86 155.378 110.09 154.875 111.307C154.368 112.524 153.835 113.728 153.272 114.918C152.709 116.108 152.115 117.285 151.495 118.448C150.875 119.608 150.224 120.755 149.547 121.885C148.87 123.015 148.166 124.128 147.435 125.224C146.704 126.32 145.943 127.397 145.158 128.453C144.374 129.512 143.566 130.551 142.728 131.571C141.893 132.586 141.031 133.586 140.146 134.561C139.264 135.537 138.356 136.492 137.424 137.421C136.492 138.353 135.536 139.262 134.561 140.147C133.585 141.032 132.589 141.893 131.57 142.728C130.551 143.563 129.511 144.374 128.455 145.159C127.396 145.943 126.32 146.701 125.223 147.435C124.13 148.166 123.017 148.87 121.887 149.547C120.758 150.225 119.611 150.875 118.448 151.495C117.287 152.116 116.111 152.709 114.92 153.272C113.727 153.835 112.523 154.368 111.306 154.871C110.089 155.378 108.862 155.85 107.622 156.293C106.381 156.739 105.131 157.151 103.87 157.533C102.609 157.916 101.339 158.268 100.061 158.586C98.784 158.908 97.4965 159.196 96.2057 159.454C94.9116 159.709 93.6141 159.937 92.3132 160.128C91.009 160.323 89.7015 160.484 88.3906 160.611C87.0797 160.742 85.7654 160.839 84.4512 160.903C83.1335 160.966 81.8193 161 80.5017 161C79.1841 161 77.8665 160.966 76.5488 160.903C75.2346 160.839 73.9203 160.742 72.6094 160.611C71.2985 160.484 69.991 160.323 68.6868 160.128C67.3859 159.937 66.0884 159.709 64.7943 159.454C63.5035 159.196 62.2194 158.908 60.9387 158.586C59.6613 158.268 58.394 157.916 57.1334 157.533C55.8727 157.151 54.6222 156.739 53.3817 156.293C52.1412 155.85 50.9107 155.378 49.6937 154.871C48.4767 154.368 47.2731 153.835 46.0829 153.272C44.8893 152.709 43.7125 152.116 42.5525 151.495C41.3891 150.875 40.2458 150.225 39.1126 149.547C37.9827 148.87 36.873 148.166 35.7767 147.435C34.6803 146.701 33.6041 145.943 32.5447 145.159C31.4886 144.374 30.4492 143.563 29.43 142.728C28.4108 141.893 27.415 141.032 26.4394 140.147C25.4638 139.262 24.5082 138.353 23.5762 137.421C22.6441 136.492 21.7389 135.537 20.8538 134.561C19.9687 133.586 19.107 132.586 18.2722 131.571C17.4374 130.551 16.626 129.512 15.8415 128.453C15.057 127.397 14.2993 126.32 13.565 125.224C12.8341 124.128 12.1301 123.015 11.4528 121.885C10.7756 120.755 10.1252 119.608 9.5049 118.448C8.88465 117.285 8.29123 116.108 7.72797 114.918C7.16472 113.728 6.63164 112.524 6.12538 111.307C5.62248 110.09 5.14975 108.86 4.70384 107.619C4.26128 106.379 3.8489 105.128 3.46669 103.868C3.08448 102.607 2.73245 101.34 2.41059 100.059C2.09209 98.7819 1.80375 97.4978 1.54559 96.2037C1.28744 94.913 1.06281 93.6155 0.871702 92.3113C0.677245 91.0105 0.516315 89.703 0.38556 88.3921C0.258157 87.0812 0.16093 85.767 0.0972283 84.4494C0.0301743 83.1352 0 81.8176 0 80.5C0 79.1824 0.0301743 77.8682 0.0972283 76.5506C0.16093 75.2364 0.258157 73.9221 0.38556 72.6113C0.516315 71.3004 0.677245 69.9929 0.871702 68.6887C1.06281 67.3845 1.28744 66.087 1.54559 64.7963C1.80375 63.5022 2.09209 62.2181 2.41059 60.9408C2.73245 59.6634 3.08448 58.3928 3.46669 57.1322C3.8489 55.8716 4.26128 54.621 4.70384 53.3806C5.14975 52.1401 5.62248 50.913 6.12538 49.696C6.63164 48.479 7.16472 47.2721 7.72797 46.0819C8.29123 44.8917 8.88465 43.7149 9.5049 42.5549C10.1252 41.3916 10.7756 40.245 11.4528 39.1151C12.1301 37.9853 12.8341 36.8722 13.565 35.7759C14.2993 34.683 15.057 33.6068 15.8415 32.5473C16.626 31.4879 17.4374 30.4519 18.2722 29.4327C19.107 28.4135 19.9687 27.4178 20.8538 26.4388C21.7389 25.4632 22.6441 24.5111 23.5762 23.579C24.5082 22.647 25.4638 21.7385 26.4394 20.8534C27.415 19.9683 28.4108 19.11 29.43 18.2752C30.4492 17.437 31.4886 16.629 32.5447 15.8412C33.6041 15.0567 34.6803 14.299 35.7767 13.5681C36.873 12.8372 37.9827 12.1298 39.1126 11.4526C40.2458 10.7754 41.3891 10.1283 42.5525 9.50471C43.7125 8.88447 44.8893 8.29441 46.0829 7.73116C47.2731 7.16792 48.4767 6.6315 49.6937 6.12861C50.9107 5.62571 52.1412 5.14964 53.3817 4.70709C54.6222 4.26455 55.8727 3.84882 57.1334 3.46662C58.394 3.08442 59.6613 2.73239 60.9387 2.41389C62.2194 2.09204 63.5035 1.80372 64.7943 1.54892C66.0884 1.29076 67.3859 1.06614 68.6868 0.871684C69.991 0.680584 71.2985 0.516305 72.6094 0.388905C73.9203 0.258152 75.2346 0.164279 76.5488 0.0972263C77.8665 0.0335269 79.1841 0 80.5017 0C81.8193 0 83.1335 0.0335269 84.4512 0.0972263C85.7654 0.164279 87.0797 0.258152 88.3906 0.388905C89.7015 0.516305 91.009 0.680584 92.3132 0.871684C93.6141 1.06614 94.9116 1.29076 96.2057 1.54892C97.4965 1.80372 98.784 2.09204 100.061 2.41389C101.339 2.73239 102.609 3.08442 103.87 3.46662C105.131 3.84882 106.381 4.26455 107.622 4.70709C108.862 5.14964 110.089 5.62571 111.306 6.12861C112.523 6.6315 113.727 7.16792 114.92 7.73116C116.111 8.29441 117.287 8.88447 118.448 9.50471C119.611 10.1283 120.758 10.7754 121.887 11.4526C123.017 12.1298 124.13 12.8372 125.223 13.5681C126.32 14.299 127.396 15.0567 128.455 15.8412C129.511 16.629 130.551 17.437 131.57 18.2752C132.589 19.11 133.585 19.9683 134.561 20.8534C135.536 21.7385 136.492 22.647 137.424 23.579C138.356 24.5111 139.264 25.4632 140.146 26.4388C141.031 27.4178 141.893 28.4135 142.728 29.4327C143.566 30.4519 144.374 31.4879 145.158 32.5473C145.943 33.6068 146.704 34.683 147.435 35.7759C148.166 36.8722 148.87 37.9853 149.547 39.1151C150.224 40.245 150.875 41.3916 151.495 42.5549C152.119 43.7149 152.709 44.8917 153.272 46.0819C153.835 47.2721 154.368 48.479 154.875 49.696C155.378 50.913 155.85 52.1401 156.296 53.3806C156.739 54.621 157.151 55.8716 157.537 57.1322C157.919 58.3928 158.268 59.6634 158.589 60.9408C158.908 62.2181 159.196 63.5022 159.454 64.7963C159.713 66.087 159.937 67.3845 160.132 68.6887C160.323 69.9929 160.484 71.3004 160.614 72.6113C160.742 73.9221 160.839 75.2364 160.906 76.5506C160.97 77.8682 161 79.1824 161 80.5Z" fill="#B4E4F1" fill-opacity="0.5"/>
<path d="M146.378 80.555C146.378 81.6395 146.354 82.7239 146.301 83.8083C146.247 84.8927 146.167 85.9738 146.059 87.0515C145.956 88.1326 145.822 89.207 145.664 90.2813C145.504 91.3523 145.32 92.4233 145.109 93.4842C144.898 94.5485 144.66 95.6061 144.399 96.6603C144.135 97.7112 143.847 98.7587 143.532 99.7961C143.221 100.834 142.879 101.864 142.514 102.885C142.153 103.905 141.761 104.916 141.349 105.92C140.934 106.92 140.496 107.911 140.034 108.891C139.572 109.875 139.086 110.842 138.574 111.799C138.065 112.756 137.533 113.699 136.978 114.629C136.422 115.559 135.843 116.475 135.243 117.379C134.641 118.278 134.018 119.165 133.376 120.038C132.729 120.907 132.063 121.763 131.377 122.603C130.694 123.439 129.988 124.261 129.261 125.064C128.535 125.869 127.788 126.655 127.022 127.42C126.259 128.189 125.475 128.935 124.675 129.663C123.872 130.392 123.055 131.1 122.218 131.788C121.381 132.477 120.531 133.145 119.661 133.789C118.793 134.437 117.91 135.062 117.009 135.663C116.109 136.267 115.198 136.845 114.268 137.405C113.34 137.963 112.4 138.496 111.446 139.007C110.492 139.517 109.527 140.007 108.55 140.471C107.572 140.934 106.585 141.374 105.584 141.787C104.586 142.203 103.575 142.592 102.558 142.958C101.54 143.324 100.512 143.663 99.478 143.979C98.4436 144.295 97.4025 144.583 96.3513 144.845C95.3036 145.11 94.2491 145.349 93.1879 145.56C92.1267 145.772 91.0622 145.956 89.991 146.114C88.9231 146.275 87.8485 146.406 86.7739 146.514C85.696 146.621 84.6181 146.698 83.5368 146.752C82.4589 146.806 81.3776 146.833 80.2964 146.833C79.2118 146.833 78.1339 146.806 77.0526 146.752C75.9713 146.698 74.8934 146.621 73.8188 146.514C72.7409 146.406 71.6697 146.275 70.5985 146.114C69.5272 145.956 68.4627 145.772 67.4015 145.56C66.3403 145.349 65.2859 145.11 64.2381 144.845C63.1903 144.583 62.1458 144.295 61.1114 143.979C60.077 143.663 59.0493 143.324 58.0317 142.958C57.014 142.592 56.0064 142.203 55.0055 141.787C54.0079 141.374 53.017 140.934 52.0395 140.471C51.062 140.007 50.0979 139.517 49.1439 139.007C48.1898 138.496 47.2491 137.963 46.3218 137.405C45.3946 136.845 44.4807 136.267 43.5802 135.663C42.6797 135.062 41.7959 134.437 40.9289 133.789C40.0585 133.145 39.2083 132.477 38.3714 131.788C37.5345 131.1 36.7177 130.392 35.9142 129.663C35.1142 128.935 34.3308 128.189 33.5676 127.42C32.801 126.655 32.0545 125.869 31.3314 125.064C30.605 124.261 29.8986 123.439 29.2124 122.603C28.5261 121.763 27.86 120.907 27.2172 120.038C26.5712 119.165 25.9485 118.278 25.3493 117.379C24.7467 116.475 24.1676 115.559 23.6119 114.629C23.0562 113.699 22.5239 112.756 22.0151 111.799C21.5029 110.842 21.0175 109.875 20.5556 108.895C20.0936 107.911 19.6551 106.92 19.24 105.92C18.8282 104.916 18.4366 103.905 18.075 102.885C17.7101 101.864 17.3687 100.834 17.0574 99.7961C16.7427 98.7587 16.4548 97.7112 16.1903 96.6603C15.9292 95.6061 15.6915 94.5485 15.4806 93.4842C15.2697 92.4233 15.0856 91.3523 14.9249 90.2813C14.7676 89.207 14.6337 88.1326 14.5299 87.0515C14.4228 85.9738 14.3425 84.8927 14.2889 83.8083C14.2387 82.7239 14.2119 81.6395 14.2119 80.555C14.2119 79.4706 14.2387 78.3862 14.2889 77.3051C14.3425 76.2207 14.4228 75.1396 14.5299 74.0585C14.6337 72.9808 14.7676 71.9031 14.9249 70.8321C15.0856 69.7578 15.2697 68.6901 15.4806 67.6258C15.6915 66.5616 15.9292 65.504 16.1903 64.4531C16.4548 63.3989 16.7427 62.3548 17.0574 61.3173C17.3687 60.2799 17.7101 59.2492 18.075 58.2286C18.4366 57.2046 18.8282 56.194 19.24 55.1935C19.6551 54.1897 20.0936 53.1992 20.5556 52.2189C21.0175 51.2385 21.5029 50.2683 22.0151 49.3114C22.5239 48.3546 23.0562 47.4112 23.6119 46.4812C24.1676 45.5512 24.7467 44.6346 25.3493 43.7348C25.9485 42.8317 26.5712 41.9454 27.2172 41.0758C27.86 40.2029 28.5261 39.3468 29.2124 38.5108C29.8986 37.6714 30.605 36.8489 31.3314 36.0465C32.0545 35.2441 32.801 34.4584 33.5676 33.6896C34.3308 32.9241 35.1142 32.1754 35.9142 31.4469C36.7177 30.7183 37.5345 30.0099 38.3714 29.3217C39.2083 28.6334 40.0585 27.9687 40.9289 27.3207C41.7959 26.6761 42.6797 26.0516 43.5802 25.4473C44.4807 24.8463 45.3946 24.2655 46.3218 23.7082C47.2491 23.1509 48.1898 22.617 49.1439 22.1034C50.0979 21.593 51.062 21.1062 52.0395 20.6429C53.017 20.1796 54.0079 19.7398 55.0055 19.3235C56.0064 18.9071 57.014 18.5177 58.0317 18.1517C59.0493 17.7858 60.077 17.4467 61.1114 17.1311C62.1458 16.8189 63.1903 16.5268 64.2381 16.2649C65.2859 15.9997 66.3403 15.7647 67.4015 15.5531C68.4627 15.3416 69.5272 15.1536 70.5985 14.9958C71.6697 14.838 72.7409 14.7037 73.8188 14.5963C74.8934 14.4922 75.9713 14.4116 77.0526 14.3579C78.1339 14.3042 79.2118 14.2773 80.2964 14.2773C81.3776 14.2773 82.4589 14.3042 83.5368 14.3579C84.6181 14.4116 85.696 14.4922 86.7739 14.5963C87.8485 14.7037 88.9231 14.838 89.991 14.9958C91.0622 15.1536 92.1267 15.3416 93.1879 15.5531C94.2491 15.7647 95.3036 15.9997 96.3513 16.2649C97.4025 16.5268 98.4436 16.8189 99.478 17.1311C100.512 17.4467 101.54 17.7858 102.558 18.1517C103.575 18.5177 104.586 18.9071 105.584 19.3235C106.585 19.7398 107.572 20.1796 108.55 20.6429C109.527 21.1062 110.492 21.593 111.446 22.1034C112.4 22.617 113.34 23.1509 114.268 23.7082C115.198 24.2655 116.109 24.8463 117.009 25.4473C117.91 26.0516 118.793 26.6761 119.661 27.3207C120.531 27.9687 121.381 28.6334 122.218 29.3217C123.055 30.0099 123.872 30.7183 124.675 31.4469C125.475 32.1754 126.259 32.9241 127.022 33.6896C127.788 34.4584 128.535 35.2441 129.261 36.0465C129.988 36.8489 130.694 37.6714 131.377 38.5108C132.063 39.3468 132.729 40.2029 133.376 41.0758C134.018 41.9454 134.641 42.8317 135.243 43.7348C135.843 44.6346 136.422 45.5512 136.978 46.4812C137.533 47.4112 138.065 48.3546 138.574 49.3114C139.086 50.2683 139.572 51.2385 140.034 52.2189C140.496 53.1992 140.934 54.1897 141.349 55.1935C141.761 56.194 142.153 57.2046 142.514 58.2286C142.879 59.2492 143.221 60.2799 143.532 61.3173C143.847 62.3548 144.135 63.3989 144.399 64.4531C144.66 65.504 144.898 66.5616 145.109 67.6258C145.32 68.6901 145.504 69.7578 145.664 70.8321C145.822 71.9031 145.956 72.9808 146.059 74.0585C146.167 75.1396 146.247 76.2207 146.301 77.3051C146.354 78.3862 146.378 79.4706 146.378 80.555Z" fill="#B4E4F1" fill-opacity="0.5"/>
<path d="M131.692 80.5493C131.692 82.2272 131.612 83.8984 131.447 85.5663C131.283 87.2375 131.038 88.892 130.709 90.5363C130.384 92.1807 129.974 93.805 129.488 95.4091C129.001 97.0165 128.437 98.5904 127.796 100.141C127.156 101.691 126.441 103.205 125.649 104.681C124.86 106.161 123.998 107.598 123.065 108.99C122.136 110.386 121.139 111.729 120.075 113.027C119.011 114.323 117.887 115.564 116.699 116.749C115.515 117.934 114.273 119.058 112.978 120.122C111.683 121.186 110.337 122.182 108.945 123.115C107.549 124.048 106.113 124.907 104.636 125.699C103.156 126.488 101.643 127.206 100.093 127.847C98.5457 128.488 96.9686 129.052 95.3646 129.538C93.7606 130.025 92.1365 130.431 90.4923 130.76C88.848 131.085 87.1904 131.334 85.5226 131.495C83.8549 131.659 82.1805 131.743 80.506 131.743C78.8282 131.743 77.1571 131.659 75.4861 131.495C73.8183 131.334 72.164 131.085 70.5198 130.76C68.8722 130.431 67.2481 130.025 65.6441 129.538C64.0401 129.052 62.463 128.488 60.9161 127.847C59.3658 127.206 57.8524 126.488 56.3759 125.699C54.8961 124.907 53.4599 124.048 52.064 123.115C50.6714 122.182 49.3258 121.186 48.0306 120.122C46.7353 119.058 45.4937 117.934 44.3092 116.749C43.1247 115.564 41.9972 114.323 40.9335 113.027C39.8731 111.729 38.8731 110.386 37.9436 108.99C37.0108 107.598 36.1518 106.161 35.3598 104.681C34.5713 103.205 33.8532 101.691 33.2123 100.141C32.5713 98.5904 32.0076 97.0165 31.521 95.4091C31.0345 93.805 30.6251 92.1807 30.2996 90.5363C29.9707 88.892 29.7258 87.2375 29.5614 85.5663C29.3969 83.8984 29.3164 82.2272 29.3164 80.5493C29.3164 78.8747 29.3969 77.2001 29.5614 75.5322C29.7258 73.8644 29.9707 72.2066 30.2996 70.5622C30.6251 68.9178 31.0345 67.2936 31.521 65.6895C32.0076 64.0854 32.5713 62.5081 33.2123 60.9577C33.8532 59.4106 34.5713 57.8971 35.3598 56.4172C36.1518 54.9406 37.0108 53.5043 37.9436 52.1083C38.8731 50.7156 39.8731 49.3699 40.9335 48.0745C41.9972 46.7758 43.1247 45.5375 44.3092 44.3495C45.4937 43.1649 46.7353 42.0407 48.0306 40.9768C49.3258 39.913 50.6714 38.9163 52.064 37.9834C53.4599 37.0538 54.8961 36.1914 56.3759 35.4027C57.8524 34.6108 59.3658 33.896 60.9161 33.255C62.463 32.6107 64.0401 32.0469 65.6441 31.5603C67.2481 31.0737 68.8722 30.6676 70.5198 30.3421C72.164 30.0132 73.8183 29.7682 75.4861 29.6038C77.1571 29.4394 78.8282 29.3555 80.506 29.3555C82.1805 29.3555 83.8549 29.4394 85.5226 29.6038C87.1904 29.7682 88.848 30.0132 90.4923 30.3421C92.1365 30.6676 93.7606 31.0737 95.3646 31.5603C96.9686 32.0469 98.5457 32.6107 100.093 33.255C101.643 33.896 103.156 34.6108 104.636 35.4027C106.113 36.1914 107.549 37.0538 108.945 37.9834C110.337 38.9163 111.683 39.913 112.978 40.9768C114.273 42.0407 115.515 43.1649 116.699 44.3495C117.887 45.5375 119.011 46.7758 120.075 48.0745C121.139 49.3699 122.136 50.7156 123.065 52.1083C123.998 53.5043 124.86 54.9406 125.649 56.4172C126.441 57.8971 127.156 59.4106 127.796 60.9577C128.437 62.5081 129.001 64.0854 129.488 65.6895C129.974 67.2936 130.384 68.9178 130.709 70.5622C131.038 72.2066 131.283 73.8644 131.447 75.5322C131.612 77.2001 131.692 78.8747 131.692 80.5493Z" fill="#B4E4F1" fill-opacity="0.5"/>
<path d="M116.587 80.5514C116.587 81.7482 116.53 82.945 116.414 84.1351C116.297 85.3286 116.123 86.512 115.89 87.6853C115.66 88.8619 115.369 90.0218 115.026 91.1681C114.682 92.3112 114.281 93.4374 113.824 94.5468C113.37 95.6529 112.863 96.732 112.303 97.7877C111.742 98.8466 111.131 99.872 110.471 100.867C109.81 101.862 109.103 102.824 108.349 103.748C107.594 104.676 106.797 105.56 105.959 106.407C105.118 107.255 104.238 108.058 103.32 108.818C102.399 109.578 101.448 110.29 100.457 110.956C99.4692 111.622 98.4515 112.237 97.4037 112.802C96.3559 113.367 95.2815 113.878 94.1836 114.335C93.0858 114.792 91.968 115.195 90.8301 115.545C89.6923 115.891 88.5411 116.18 87.3732 116.416C86.2086 116.648 85.034 116.826 83.8528 116.944C82.6682 117.058 81.4836 117.118 80.2957 117.118C79.1045 117.118 77.9199 117.058 76.7353 116.944C75.5541 116.826 74.3795 116.648 73.215 116.416C72.0471 116.18 70.8959 115.891 69.758 115.545C68.6201 115.195 67.5023 114.792 66.4045 114.335C65.3067 113.878 64.2322 113.367 63.1844 112.802C62.1367 112.237 61.1189 111.622 60.1312 110.956C59.1435 110.29 58.1892 109.578 57.2682 108.818C56.3506 108.058 55.4697 107.255 54.6321 106.407C53.7913 105.56 52.9937 104.676 52.2396 103.748C51.4855 102.824 50.7781 101.862 50.1174 100.867C49.4567 99.872 48.8461 98.8466 48.2855 97.7877C47.7249 96.732 47.2177 95.6529 46.7639 94.5468C46.3067 93.4374 45.9096 92.3112 45.5626 91.1681C45.2189 90.0218 44.9286 88.8619 44.6984 87.6853C44.4648 86.512 44.2913 85.3286 44.1745 84.1351C44.0577 82.945 44.001 81.7482 44.001 80.5514C44.001 79.3546 44.0577 78.1611 44.1745 76.9676C44.2913 75.7775 44.4648 74.5942 44.6984 73.4175C44.9286 72.2442 45.2189 71.0844 45.5626 69.938C45.9096 68.7916 46.3067 67.6654 46.7639 66.5593C47.2177 65.4532 47.7249 64.3707 48.2855 63.3151C48.8461 62.2595 49.4567 61.2341 50.1174 60.2356C50.7781 59.2405 51.4855 58.279 52.2396 57.3545C52.9937 56.43 53.7913 55.5425 54.6321 54.6953C55.4697 53.8481 56.3506 53.0446 57.2682 52.2848C58.1892 51.525 59.1435 50.8123 60.1312 50.15C61.1189 49.4844 62.1367 48.8692 63.1844 48.3044C64.2322 47.7396 65.3067 47.2286 66.4045 46.768C67.5023 46.3108 68.6201 45.9074 69.758 45.5611C70.8959 45.2115 72.0471 44.9223 73.215 44.687C74.3795 44.455 75.5541 44.2802 76.7353 44.1626C77.9199 44.0449 79.1045 43.9844 80.2957 43.9844C81.4836 43.9844 82.6682 44.0449 83.8528 44.1626C85.034 44.2802 86.2086 44.455 87.3732 44.687C88.5411 44.9223 89.6923 45.2115 90.8301 45.5611C91.968 45.9074 93.0858 46.3108 94.1836 46.768C95.2815 47.2286 96.3559 47.7396 97.4037 48.3044C98.4515 48.8692 99.4692 49.4844 100.457 50.15C101.448 50.8123 102.399 51.525 103.32 52.2848C104.238 53.0446 105.118 53.8481 105.959 54.6953C106.797 55.5425 107.594 56.43 108.349 57.3545C109.103 58.279 109.81 59.2405 110.471 60.2356C111.131 61.2341 111.742 62.2595 112.303 63.3151C112.863 64.3707 113.37 65.4532 113.824 66.5593C114.281 67.6654 114.682 68.7916 115.026 69.938C115.369 71.0844 115.66 72.2442 115.89 73.4175C116.123 74.5942 116.297 75.7775 116.414 76.9676C116.53 78.1611 116.587 79.3546 116.587 80.5514Z" fill="#B4E4F1"/>
</svg>
