<svg width="21" height="21" viewBox="0 0 21 21" fill="none" xmlns="http://www.w3.org/2000/svg">
<path d="M1.125 10.5H1.875H1.125ZM10.5 19.875V19.125V19.875ZM19.875 10.5H19.125H19.875ZM10.5 1.125V0.375V1.125ZM12.0882 8.72016C12.3994 8.9936 12.8733 8.96303 13.1467 8.6519C13.4201 8.34076 13.3896 7.86687 13.0784 7.59343L12.0882 8.72016ZM8.24688 8.33701L8.78689 8.85747L8.78701 8.85735L8.24688 8.33701ZM8.24688 12.6641L8.78701 12.1437L8.78689 12.1436L8.24688 12.6641ZM13.0784 13.4077C13.3896 13.1342 13.4201 12.6603 13.1467 12.3492C12.8733 12.0381 12.3994 12.0075 12.0882 12.2809L13.0784 13.4077ZM0.375 10.5C0.375 11.8296 0.636891 13.1462 1.14572 14.3747L2.53154 13.8006C2.09809 12.7542 1.875 11.6327 1.875 10.5H0.375ZM1.14572 14.3747C1.65455 15.6031 2.40035 16.7193 3.34054 17.6595L4.4012 16.5988C3.6003 15.7979 2.96499 14.8471 2.53154 13.8006L1.14572 14.3747ZM3.34054 17.6595C4.28074 18.5996 5.39691 19.3455 6.62533 19.8543L7.19936 18.4685C6.15292 18.035 5.20211 17.3997 4.4012 16.5988L3.34054 17.6595ZM6.62533 19.8543C7.85375 20.3631 9.17037 20.625 10.5 20.625V19.125C9.36735 19.125 8.24579 18.9019 7.19936 18.4685L6.62533 19.8543ZM10.5 20.625C11.8296 20.625 13.1462 20.3631 14.3747 19.8543L13.8006 18.4685C12.7542 18.9019 11.6327 19.125 10.5 19.125V20.625ZM14.3747 19.8543C15.6031 19.3455 16.7193 18.5996 17.6595 17.6595L16.5988 16.5988C15.7979 17.3997 14.8471 18.035 13.8006 18.4685L14.3747 19.8543ZM17.6595 17.6595C18.5996 16.7193 19.3455 15.6031 19.8543 14.3747L18.4685 13.8006C18.035 14.8471 17.3997 15.7979 16.5988 16.5988L17.6595 17.6595ZM19.8543 14.3747C20.3631 13.1462 20.625 11.8296 20.625 10.5H19.125C19.125 11.6327 18.9019 12.7542 18.4685 13.8006L19.8543 14.3747ZM20.625 10.5C20.625 9.17037 20.3631 7.85375 19.8543 6.62533L18.4685 7.19936C18.9019 8.24579 19.125 9.36735 19.125 10.5H20.625ZM19.8543 6.62533C19.3455 5.39691 18.5996 4.28074 17.6595 3.34054L16.5988 4.4012C17.3997 5.20211 18.035 6.15292 18.4685 7.19936L19.8543 6.62533ZM17.6595 3.34054C16.7193 2.40035 15.6031 1.65455 14.3747 1.14572L13.8006 2.53154C14.8471 2.96499 15.7979 3.6003 16.5988 4.4012L17.6595 3.34054ZM14.3747 1.14572C13.1462 0.636891 11.8296 0.375 10.5 0.375V1.875C11.6327 1.875 12.7542 2.09809 13.8006 2.53154L14.3747 1.14572ZM10.5 0.375C9.17037 0.375 7.85375 0.636891 6.62533 1.14572L7.19936 2.53154C8.24579 2.09809 9.36735 1.875 10.5 1.875V0.375ZM6.62533 1.14572C5.39691 1.65455 4.28074 2.40035 3.34054 3.34054L4.4012 4.4012C5.20211 3.6003 6.15292 2.96499 7.19936 2.53154L6.62533 1.14572ZM3.34054 3.34054C2.40035 4.28074 1.65455 5.39691 1.14572 6.62533L2.53154 7.19936C2.96499 6.15292 3.6003 5.20211 4.4012 4.4012L3.34054 3.34054ZM1.14572 6.62533C0.636891 7.85375 0.375 9.17037 0.375 10.5H1.875C1.875 9.36735 2.09809 8.24579 2.53154 7.19936L1.14572 6.62533ZM13.0784 7.59343C12.3263 6.93243 11.3483 6.58678 10.3478 6.62836L10.4101 8.12706C11.025 8.10151 11.626 8.31394 12.0882 8.72016L13.0784 7.59343ZM10.3478 6.62836C9.34739 6.66993 8.40145 7.09554 7.70674 7.81666L8.78701 8.85735C9.21395 8.41417 9.79528 8.15262 10.4101 8.12706L10.3478 6.62836ZM7.70686 7.81654C7.01215 8.53735 6.62398 9.49945 6.62398 10.5005H8.12398C8.12398 9.8877 8.36161 9.29873 8.78689 8.85747L7.70686 7.81654ZM6.62398 10.5005C6.62398 11.5016 7.01215 12.4637 7.70686 13.1846L8.78689 12.1436C8.36161 11.7024 8.12398 11.1134 8.12398 10.5005H6.62398ZM7.70674 13.1844C8.40145 13.9056 9.34739 14.3312 10.3478 14.3727L10.4101 12.874C9.79528 12.8485 9.21395 12.5869 8.78701 12.1437L7.70674 13.1844ZM10.3478 14.3727C11.3483 14.4143 12.3263 14.0687 13.0784 13.4077L12.0882 12.2809C11.626 12.6872 11.025 12.8996 10.4101 12.874L10.3478 14.3727Z" fill="black"/>
</svg>
