<svg width="73" height="72" viewBox="0 0 73 72" fill="none" xmlns="http://www.w3.org/2000/svg">
<path d="M6.07719 7.6704C6.07719 7.16911 6.29197 6.68835 6.67428 6.33388C7.05659 5.97941 7.57511 5.78027 8.11578 5.78027H32.5789C33.1196 5.78027 33.6381 5.97941 34.0204 6.33388C34.4027 6.68835 34.6175 7.16911 34.6175 7.6704V30.352C34.6175 30.8533 34.4027 31.3341 34.0204 31.6885C33.6381 32.043 33.1196 32.2422 32.5789 32.2422H8.11578C7.57511 32.2422 7.05659 32.043 6.67428 31.6885C6.29197 31.3341 6.07719 30.8533 6.07719 30.352V7.6704Z" fill="#E4C1F9"/>
<path d="M12.193 15.2309V11.4507H16.2702M28.5017 22.7915V26.5718H24.4245M16.2702 26.5718H12.193V22.7915M28.5017 15.2309V11.4507H24.4245" fill="#E4C1F9"/>
<path d="M2 15.2309H6.07719H2Z" fill="#E4C1F9"/>
<path d="M2 22.7915H6.07719H2Z" fill="#E4C1F9"/>
<path d="M16.2702 2V5.78027V2Z" fill="#E4C1F9"/>
<path d="M24.4245 2V5.78027V2Z" fill="#E4C1F9"/>
<path d="M38.6947 15.2309H34.6175H38.6947Z" fill="#E4C1F9"/>
<path d="M38.6947 22.7915H34.6175H38.6947Z" fill="#E4C1F9"/>
<path d="M24.4245 36.0224V32.2422V36.0224Z" fill="#E4C1F9"/>
<path d="M16.2702 36.0224V32.2422V36.0224Z" fill="#E4C1F9"/>
<path d="M8.11578 5.78027V7.28027V5.78027ZM10.693 15.2309C10.693 16.0594 11.3645 16.7309 12.193 16.7309C13.0214 16.7309 13.693 16.0594 13.693 15.2309H10.693ZM12.193 11.4507V9.95067C11.3645 9.95067 10.693 10.6222 10.693 11.4507H12.193ZM16.2702 12.9507C17.0986 12.9507 17.7702 12.2791 17.7702 11.4507C17.7702 10.6222 17.0986 9.95067 16.2702 9.95067V12.9507ZM30.0017 22.7915C30.0017 21.9631 29.3302 21.2915 28.5017 21.2915C27.6733 21.2915 27.0017 21.9631 27.0017 22.7915H30.0017ZM28.5017 26.5718V28.0718C29.3302 28.0718 30.0017 27.4002 30.0017 26.5718H28.5017ZM24.4245 25.0718C23.5961 25.0718 22.9245 25.7433 22.9245 26.5718C22.9245 27.4002 23.5961 28.0718 24.4245 28.0718V25.0718ZM16.2702 28.0718C17.0986 28.0718 17.7702 27.4002 17.7702 26.5718C17.7702 25.7433 17.0986 25.0718 16.2702 25.0718V28.0718ZM12.193 26.5718H10.693C10.693 27.4002 11.3645 28.0718 12.193 28.0718V26.5718ZM13.693 22.7915C13.693 21.9631 13.0214 21.2915 12.193 21.2915C11.3645 21.2915 10.693 21.9631 10.693 22.7915H13.693ZM27.0017 15.2309C27.0017 16.0594 27.6733 16.7309 28.5017 16.7309C29.3302 16.7309 30.0017 16.0594 30.0017 15.2309H27.0017ZM28.5017 11.4507H30.0017C30.0017 10.6222 29.3302 9.95067 28.5017 9.95067V11.4507ZM24.4245 9.95067C23.5961 9.95067 22.9245 10.6222 22.9245 11.4507C22.9245 12.2791 23.5961 12.9507 24.4245 12.9507V9.95067ZM2 13.7309C1.17157 13.7309 0.5 14.4025 0.5 15.2309C0.5 16.0594 1.17157 16.7309 2 16.7309V13.7309ZM6.07719 16.7309C6.90562 16.7309 7.57719 16.0594 7.57719 15.2309C7.57719 14.4025 6.90562 13.7309 6.07719 13.7309V16.7309ZM2 21.2915C1.17157 21.2915 0.5 21.9631 0.5 22.7915C0.5 23.6199 1.17157 24.2915 2 24.2915V21.2915ZM6.07719 24.2915C6.90562 24.2915 7.57719 23.6199 7.57719 22.7915C7.57719 21.9631 6.90562 21.2915 6.07719 21.2915V24.2915ZM17.7702 2C17.7702 1.17157 17.0986 0.5 16.2702 0.5C15.4417 0.5 14.7702 1.17157 14.7702 2H17.7702ZM14.7702 5.78027C14.7702 6.6087 15.4417 7.28027 16.2702 7.28027C17.0986 7.28027 17.7702 6.6087 17.7702 5.78027H14.7702ZM25.9245 2C25.9245 1.17157 25.253 0.5 24.4245 0.5C23.5961 0.5 22.9245 1.17157 22.9245 2H25.9245ZM22.9245 5.78027C22.9245 6.6087 23.5961 7.28027 24.4245 7.28027C25.253 7.28027 25.9245 6.6087 25.9245 5.78027H22.9245ZM38.6947 16.7309C39.5231 16.7309 40.1947 16.0594 40.1947 15.2309C40.1947 14.4025 39.5231 13.7309 38.6947 13.7309V16.7309ZM34.6175 13.7309C33.7891 13.7309 33.1175 14.4025 33.1175 15.2309C33.1175 16.0594 33.7891 16.7309 34.6175 16.7309V13.7309ZM38.6947 24.2915C39.5231 24.2915 40.1947 23.6199 40.1947 22.7915C40.1947 21.9631 39.5231 21.2915 38.6947 21.2915V24.2915ZM34.6175 21.2915C33.7891 21.2915 33.1175 21.9631 33.1175 22.7915C33.1175 23.6199 33.7891 24.2915 34.6175 24.2915V21.2915ZM22.9245 36.0224C22.9245 36.8508 23.5961 37.5224 24.4245 37.5224C25.253 37.5224 25.9245 36.8508 25.9245 36.0224H22.9245ZM25.9245 32.2422C25.9245 31.4137 25.253 30.7422 24.4245 30.7422C23.5961 30.7422 22.9245 31.4137 22.9245 32.2422H25.9245ZM14.7702 36.0224C14.7702 36.8508 15.4417 37.5224 16.2702 37.5224C17.0986 37.5224 17.7702 36.8508 17.7702 36.0224H14.7702ZM17.7702 32.2422C17.7702 31.4137 17.0986 30.7422 16.2702 30.7422C15.4417 30.7422 14.7702 31.4137 14.7702 32.2422H17.7702ZM7.57719 7.6704C7.57719 7.60511 7.60414 7.51728 7.69413 7.43383L5.65443 5.23392C4.9798 5.85942 4.57719 6.73311 4.57719 7.6704H7.57719ZM7.69413 7.43383C7.78795 7.34685 7.93788 7.28027 8.11578 7.28027V4.28027C7.21235 4.28027 6.32523 4.61197 5.65443 5.23392L7.69413 7.43383ZM8.11578 7.28027H32.5789V4.28027H8.11578V7.28027ZM32.5789 7.28027C32.7568 7.28027 32.9068 7.34685 33.0006 7.43383L35.0403 5.23392C34.3695 4.61197 33.4824 4.28027 32.5789 4.28027V7.28027ZM33.0006 7.43383C33.0906 7.51727 33.1175 7.6051 33.1175 7.6704H36.1175C36.1175 6.73312 35.7149 5.85942 35.0403 5.23392L33.0006 7.43383ZM33.1175 7.6704V30.352H36.1175V7.6704H33.1175ZM33.1175 30.352C33.1175 30.4173 33.0906 30.5052 33.0006 30.5886L35.0403 32.7885C35.7149 32.163 36.1175 31.2893 36.1175 30.352H33.1175ZM33.0006 30.5886C32.9068 30.6756 32.7568 30.7422 32.5789 30.7422V33.7422C33.4823 33.7422 34.3695 33.4105 35.0403 32.7885L33.0006 30.5886ZM32.5789 30.7422H8.11578V33.7422H32.5789V30.7422ZM8.11578 30.7422C7.93787 30.7422 7.78795 30.6756 7.69413 30.5886L5.65443 32.7885C6.32523 33.4105 7.21236 33.7422 8.11578 33.7422V30.7422ZM7.69413 30.5886C7.60414 30.5052 7.57719 30.4173 7.57719 30.352H4.57719C4.57719 31.2893 4.9798 32.163 5.65443 32.7885L7.69413 30.5886ZM7.57719 30.352V7.6704H4.57719V30.352H7.57719ZM13.693 15.2309V11.4507H10.693V15.2309H13.693ZM12.193 12.9507H16.2702V9.95067H12.193V12.9507ZM27.0017 22.7915V26.5718H30.0017V22.7915H27.0017ZM28.5017 25.0718H24.4245V28.0718H28.5017V25.0718ZM16.2702 25.0718H12.193V28.0718H16.2702V25.0718ZM13.693 26.5718V22.7915H10.693V26.5718H13.693ZM30.0017 15.2309V11.4507H27.0017V15.2309H30.0017ZM28.5017 9.95067H24.4245V12.9507H28.5017V9.95067ZM2 16.7309H6.07719V13.7309H2V16.7309ZM2 24.2915H6.07719V21.2915H2V24.2915ZM14.7702 2V5.78027H17.7702V2H14.7702ZM22.9245 2V5.78027H25.9245V2H22.9245ZM38.6947 13.7309H34.6175V16.7309H38.6947V13.7309ZM38.6947 21.2915H34.6175V24.2915H38.6947V21.2915ZM25.9245 36.0224V32.2422H22.9245V36.0224H25.9245ZM17.7702 36.0224V32.2422H14.7702V36.0224H17.7702Z" fill="#BF5DF9"/>
<path d="M38.3916 41.6938C38.3916 41.1925 38.6064 40.7118 38.9887 40.3573C39.371 40.0028 39.8896 39.8037 40.4302 39.8037H64.8934C65.434 39.8037 65.9526 40.0028 66.3349 40.3573C66.7172 40.7118 66.932 41.1925 66.932 41.6938V64.3755C66.932 64.8768 66.7172 65.3575 66.3349 65.712C65.9526 66.0665 65.434 66.2656 64.8934 66.2656H40.4302C39.8896 66.2656 39.371 66.0665 38.9887 65.712C38.6064 65.3575 38.3916 64.8768 38.3916 64.3755V41.6938Z" fill="#E4C1F9"/>
<path d="M44.5074 49.2544V45.4741H48.5846M60.8162 56.8149V60.5952H56.739M48.5846 60.5952H44.5074V56.8149M60.8162 49.2544V45.4741H56.739" fill="#E4C1F9"/>
<path d="M34.3145 49.2544H38.3916H34.3145Z" fill="#E4C1F9"/>
<path d="M34.3145 56.8149H38.3916H34.3145Z" fill="#E4C1F9"/>
<path d="M48.5846 36.0234V39.8037V36.0234Z" fill="#E4C1F9"/>
<path d="M56.739 36.0234V39.8037V36.0234Z" fill="#E4C1F9"/>
<path d="M71.0092 49.2544H66.932H71.0092Z" fill="#E4C1F9"/>
<path d="M71.0092 56.8149H66.932H71.0092Z" fill="#E4C1F9"/>
<path d="M56.739 70.0459V66.2656V70.0459Z" fill="#E4C1F9"/>
<path d="M48.5846 70.0459V66.2656V70.0459Z" fill="#E4C1F9"/>
<path d="M40.4302 39.8037V41.3037V39.8037ZM66.3349 40.3573L67.3547 39.2574L66.3349 40.3573ZM66.3349 65.712L67.3547 66.8119L66.3349 65.712ZM43.0074 49.2544C43.0074 50.0828 43.679 50.7544 44.5074 50.7544C45.3359 50.7544 46.0074 50.0828 46.0074 49.2544H43.0074ZM44.5074 45.4741V43.9741C43.679 43.9741 43.0074 44.6457 43.0074 45.4741H44.5074ZM48.5846 46.9741C49.413 46.9741 50.0846 46.3025 50.0846 45.4741C50.0846 44.6457 49.413 43.9741 48.5846 43.9741V46.9741ZM62.3162 56.8149C62.3162 55.9865 61.6446 55.3149 60.8162 55.3149C59.9878 55.3149 59.3162 55.9865 59.3162 56.8149H62.3162ZM60.8162 60.5952V62.0952C61.6446 62.0952 62.3162 61.4236 62.3162 60.5952H60.8162ZM56.739 59.0952C55.9106 59.0952 55.239 59.7668 55.239 60.5952C55.239 61.4236 55.9106 62.0952 56.739 62.0952V59.0952ZM48.5846 62.0952C49.413 62.0952 50.0846 61.4236 50.0846 60.5952C50.0846 59.7668 49.413 59.0952 48.5846 59.0952V62.0952ZM44.5074 60.5952H43.0074C43.0074 61.4236 43.679 62.0952 44.5074 62.0952V60.5952ZM46.0074 56.8149C46.0074 55.9865 45.3359 55.3149 44.5074 55.3149C43.679 55.3149 43.0074 55.9865 43.0074 56.8149H46.0074ZM59.3162 49.2544C59.3162 50.0828 59.9878 50.7544 60.8162 50.7544C61.6446 50.7544 62.3162 50.0828 62.3162 49.2544H59.3162ZM60.8162 45.4741H62.3162C62.3162 44.6457 61.6446 43.9741 60.8162 43.9741V45.4741ZM56.739 43.9741C55.9106 43.9741 55.239 44.6457 55.239 45.4741C55.239 46.3025 55.9106 46.9741 56.739 46.9741V43.9741ZM34.3145 47.7544C33.486 47.7544 32.8145 48.426 32.8145 49.2544C32.8145 50.0828 33.486 50.7544 34.3145 50.7544V47.7544ZM38.3916 50.7544C39.2201 50.7544 39.8916 50.0828 39.8916 49.2544C39.8916 48.426 39.2201 47.7544 38.3916 47.7544V50.7544ZM34.3145 55.3149C33.486 55.3149 32.8145 55.9865 32.8145 56.8149C32.8145 57.6433 33.486 58.3149 34.3145 58.3149V55.3149ZM38.3916 58.3149C39.2201 58.3149 39.8916 57.6433 39.8916 56.8149C39.8916 55.9865 39.2201 55.3149 38.3916 55.3149V58.3149ZM50.0846 36.0234C50.0846 35.195 49.413 34.5234 48.5846 34.5234C47.7562 34.5234 47.0846 35.195 47.0846 36.0234H50.0846ZM47.0846 39.8037C47.0846 40.6321 47.7562 41.3037 48.5846 41.3037C49.413 41.3037 50.0846 40.6321 50.0846 39.8037H47.0846ZM58.239 36.0234C58.239 35.195 57.5674 34.5234 56.739 34.5234C55.9106 34.5234 55.239 35.195 55.239 36.0234H58.239ZM55.239 39.8037C55.239 40.6321 55.9106 41.3037 56.739 41.3037C57.5674 41.3037 58.239 40.6321 58.239 39.8037H55.239ZM71.0092 50.7544C71.8376 50.7544 72.5092 50.0828 72.5092 49.2544C72.5092 48.426 71.8376 47.7544 71.0092 47.7544V50.7544ZM66.932 47.7544C66.1035 47.7544 65.432 48.426 65.432 49.2544C65.432 50.0828 66.1035 50.7544 66.932 50.7544V47.7544ZM71.0092 58.3149C71.8376 58.3149 72.5092 57.6433 72.5092 56.8149C72.5092 55.9865 71.8376 55.3149 71.0092 55.3149V58.3149ZM66.932 55.3149C66.1035 55.3149 65.432 55.9865 65.432 56.8149C65.432 57.6433 66.1035 58.3149 66.932 58.3149V55.3149ZM55.239 70.0459C55.239 70.8743 55.9106 71.5459 56.739 71.5459C57.5674 71.5459 58.239 70.8743 58.239 70.0459H55.239ZM58.239 66.2656C58.239 65.4372 57.5674 64.7656 56.739 64.7656C55.9106 64.7656 55.239 65.4372 55.239 66.2656H58.239ZM47.0846 70.0459C47.0846 70.8743 47.7562 71.5459 48.5846 71.5459C49.413 71.5459 50.0846 70.8743 50.0846 70.0459H47.0846ZM50.0846 66.2656C50.0846 65.4372 49.413 64.7656 48.5846 64.7656C47.7562 64.7656 47.0846 65.4372 47.0846 66.2656H50.0846ZM39.8916 41.6938C39.8916 41.6285 39.9186 41.5407 40.0086 41.4573L37.9689 39.2574C37.2943 39.8829 36.8916 40.7565 36.8916 41.6938H39.8916ZM40.0086 41.4573C40.1024 41.3703 40.2523 41.3037 40.4302 41.3037L40.4302 38.3037C39.5268 38.3037 38.6397 38.6354 37.9689 39.2574L40.0086 41.4573ZM40.4302 41.3037H64.8934V38.3037H40.4302V41.3037ZM64.8934 41.3037C65.0713 41.3037 65.2212 41.3703 65.315 41.4573L67.3547 39.2574C66.6839 38.6354 65.7968 38.3037 64.8934 38.3037V41.3037ZM65.315 41.4573C65.405 41.5407 65.432 41.6285 65.432 41.6938H68.432C68.432 40.7566 68.0294 39.8829 67.3547 39.2574L65.315 41.4573ZM65.432 41.6938V64.3755H68.432V41.6938H65.432ZM65.432 64.3755C65.432 64.4408 65.405 64.5286 65.315 64.612L67.3547 66.8119C68.0294 66.1864 68.432 65.3127 68.432 64.3755H65.432ZM65.315 64.612C65.2212 64.699 65.0713 64.7656 64.8934 64.7656V67.7656C65.7968 67.7656 66.6839 67.4339 67.3547 66.8119L65.315 64.612ZM64.8934 64.7656H40.4302V67.7656H64.8934V64.7656ZM40.4302 64.7656C40.2523 64.7656 40.1024 64.699 40.0086 64.612L37.9689 66.8119C38.6397 67.4339 39.5268 67.7656 40.4302 67.7656V64.7656ZM40.0086 64.612C39.9186 64.5286 39.8916 64.4408 39.8916 64.3755H36.8916C36.8916 65.3127 37.2943 66.1864 37.9689 66.8119L40.0086 64.612ZM39.8916 64.3755V41.6938H36.8916V64.3755H39.8916ZM46.0074 49.2544V45.4741H43.0074V49.2544H46.0074ZM44.5074 46.9741H48.5846V43.9741H44.5074V46.9741ZM59.3162 56.8149V60.5952H62.3162V56.8149H59.3162ZM60.8162 59.0952H56.739V62.0952H60.8162V59.0952ZM48.5846 59.0952H44.5074V62.0952H48.5846V59.0952ZM46.0074 60.5952V56.8149H43.0074V60.5952H46.0074ZM62.3162 49.2544V45.4741H59.3162V49.2544H62.3162ZM60.8162 43.9741H56.739V46.9741H60.8162V43.9741ZM34.3145 50.7544H38.3916V47.7544H34.3145V50.7544ZM34.3145 58.3149H38.3916V55.3149H34.3145V58.3149ZM47.0846 36.0234V39.8037H50.0846V36.0234H47.0846ZM55.239 36.0234V39.8037H58.239V36.0234H55.239ZM71.0092 47.7544H66.932V50.7544H71.0092V47.7544ZM71.0092 55.3149H66.932V58.3149H71.0092V55.3149ZM58.239 70.0459V66.2656H55.239V70.0459H58.239ZM50.0846 70.0459V66.2656H47.0846V70.0459H50.0846Z" fill="#BF5DF9"/>
</svg>
