<svg width="59" height="57" viewBox="0 0 59 57" fill="none" xmlns="http://www.w3.org/2000/svg">
<path d="M13.5789 49.5641C13.5789 48.1624 12.969 46.8182 11.8833 45.8271C10.7975 44.836 9.32494 44.2792 7.78947 44.2792C6.25401 44.2792 4.78143 44.836 3.6957 45.8271C2.60996 46.8182 2 48.1624 2 49.5641C2 50.9657 2.60996 52.31 3.6957 53.3011C4.78143 54.2922 6.25401 54.849 7.78947 54.849C9.32494 54.849 10.7975 54.2922 11.8833 53.3011C12.969 52.31 13.5789 50.9657 13.5789 49.5641Z" fill="#E4C1F9"/>
<path d="M42.5263 7.2849C42.5263 5.88326 41.9164 4.53902 40.8306 3.54791C39.7449 2.5568 38.2723 2 36.7368 2C35.2014 2 33.7288 2.5568 32.6431 3.54791C31.5573 4.53902 30.9474 5.88326 30.9474 7.2849C30.9474 8.68654 31.5573 10.0308 32.6431 11.0219C33.7288 12.013 35.2014 12.5698 36.7368 12.5698C38.2723 12.5698 39.7449 12.013 40.8306 11.0219C41.9164 10.0308 42.5263 8.68654 42.5263 7.2849Z" fill="#E4C1F9"/>
<path d="M42.5263 49.5641C42.5263 48.1624 41.9164 46.8182 40.8306 45.8271C39.7449 44.836 38.2723 44.2792 36.7368 44.2792C35.2014 44.2792 33.7288 44.836 32.6431 45.8271C31.5573 46.8182 30.9474 48.1624 30.9474 49.5641C30.9474 50.9657 31.5573 52.31 32.6431 53.3011C33.7288 54.2922 35.2014 54.849 36.7368 54.849C38.2723 54.849 39.7449 54.2922 40.8306 53.3011C41.9164 52.31 42.5263 50.9657 42.5263 49.5641Z" fill="#E4C1F9"/>
<path d="M28.0526 28.4245C28.0526 27.0229 27.4427 25.6786 26.3569 24.6875C25.2712 23.6964 23.7986 23.1396 22.2632 23.1396C20.7277 23.1396 19.2551 23.6964 18.1694 24.6875C17.0836 25.6786 16.4737 27.0229 16.4737 28.4245C16.4737 29.8261 17.0836 31.1704 18.1694 32.1615C19.2551 33.1526 20.7277 33.7094 22.2632 33.7094C23.7986 33.7094 25.2712 33.1526 26.3569 32.1615C27.4427 31.1704 28.0526 29.8261 28.0526 28.4245Z" fill="#E4C1F9"/>
<path d="M57 28.4245C57 27.0229 56.39 25.6786 55.3043 24.6875C54.2186 23.6964 52.746 23.1396 51.2105 23.1396C49.6751 23.1396 48.2025 23.6964 47.1167 24.6875C46.031 25.6786 45.4211 27.0229 45.4211 28.4245C45.4211 29.8261 46.031 31.1704 47.1167 32.1615C48.2025 33.1526 49.6751 33.7094 51.2105 33.7094C52.746 33.7094 54.2186 33.1526 55.3043 32.1615C56.39 31.1704 57 29.8261 57 28.4245Z" fill="#E4C1F9"/>
<path d="M10.8538 45.0857L19.1907 32.9146L10.8538 45.0857Z" fill="#E4C1F9"/>
<path d="M25.3332 23.9408L33.6613 11.775L25.3332 23.9408Z" fill="#E4C1F9"/>
<path d="M25.3445 32.9301L33.6697 45.0853L25.3445 32.9301Z" fill="#E4C1F9"/>
<path d="M39.8125 11.775L48.1522 23.9567L39.8125 11.775Z" fill="#E4C1F9"/>
<path d="M13.5789 49.5641H15.0789H13.5789ZM2 49.5641H0.5H2ZM36.7368 2V0.5V2ZM36.7368 12.5698V14.0698V12.5698ZM16.4737 28.4245H14.9737H16.4737ZM9.6163 44.238C9.14815 44.9215 9.32269 45.8551 10.0062 46.3232C10.6896 46.7914 11.6232 46.6168 12.0913 45.9334L9.6163 44.238ZM20.4282 33.7623C20.8963 33.0788 20.7218 32.1452 20.0383 31.6771C19.3549 31.2089 18.4213 31.3835 17.9531 32.0669L20.4282 33.7623ZM24.0954 23.0935C23.6274 23.7771 23.8022 24.7106 24.4858 25.1786C25.1694 25.6466 26.103 25.4717 26.5709 24.7882L24.0954 23.0935ZM34.8991 12.6223C35.367 11.9387 35.1922 11.0052 34.5086 10.5372C33.825 10.0693 32.8915 10.2441 32.4236 10.9277L34.8991 12.6223ZM26.582 32.0825C26.1139 31.399 25.1803 31.2244 24.4969 31.6925C23.8134 32.1606 23.6388 33.0942 24.1069 33.7777L26.582 32.0825ZM32.4322 45.933C32.9003 46.6164 33.8339 46.791 34.5173 46.3229C35.2008 45.8548 35.3754 44.9212 34.9073 44.2377L32.4322 45.933ZM41.0502 10.9276C40.5822 10.2441 39.6487 10.0693 38.9651 10.5373C38.2816 11.0053 38.1068 11.9388 38.5748 12.6224L41.0502 10.9276ZM46.9145 24.8041C47.3825 25.4876 48.316 25.6624 48.9996 25.1944C49.6832 24.7264 49.858 23.7929 49.39 23.1093L46.9145 24.8041ZM15.0789 49.5641C15.0789 47.7182 14.2744 45.9789 12.8945 44.7193L10.872 46.9349C11.6635 47.6575 12.0789 48.6067 12.0789 49.5641H15.0789ZM12.8945 44.7193C11.5192 43.4638 9.68086 42.7792 7.78947 42.7792V45.7792C8.96902 45.7792 10.0758 46.2082 10.872 46.9349L12.8945 44.7193ZM7.78947 42.7792C5.89809 42.7792 4.05975 43.4638 2.68441 44.7193L4.70698 46.9349C5.50312 46.2082 6.60993 45.7792 7.78947 45.7792V42.7792ZM2.68441 44.7193C1.30451 45.9789 0.5 47.7182 0.5 49.5641H3.5C3.5 48.6067 3.91541 47.6575 4.70698 46.9349L2.68441 44.7193ZM0.5 49.5641C0.5 51.41 1.30451 53.1493 2.68441 54.4089L4.70698 52.1932C3.91541 51.4707 3.5 50.5215 3.5 49.5641H0.5ZM2.68441 54.4089C4.05975 55.6644 5.89809 56.349 7.78947 56.349V53.349C6.60993 53.349 5.50312 52.92 4.70698 52.1932L2.68441 54.4089ZM7.78947 56.349C9.68086 56.349 11.5192 55.6644 12.8945 54.4089L10.872 52.1932C10.0758 52.92 8.96902 53.349 7.78947 53.349V56.349ZM12.8945 54.4089C14.2744 53.1493 15.0789 51.41 15.0789 49.5641H12.0789C12.0789 50.5215 11.6635 51.4707 10.872 52.1932L12.8945 54.4089ZM44.0263 7.2849C44.0263 5.439 43.2218 3.69971 41.8419 2.44007L39.8193 4.65575C40.6109 5.37833 41.0263 6.32751 41.0263 7.2849H44.0263ZM41.8419 2.44007C40.4666 1.18461 38.6282 0.5 36.7368 0.5V3.5C37.9164 3.5 39.0232 3.92899 39.8193 4.65575L41.8419 2.44007ZM36.7368 0.5C34.8455 0.5 33.0071 1.18461 31.6318 2.44007L33.6544 4.65575C34.4505 3.92899 35.5573 3.5 36.7368 3.5V0.5ZM31.6318 2.44007C30.2519 3.69971 29.4474 5.439 29.4474 7.2849H32.4474C32.4474 6.32751 32.8628 5.37833 33.6544 4.65575L31.6318 2.44007ZM29.4474 7.2849C29.4474 9.13079 30.2519 10.8701 31.6318 12.1297L33.6544 9.91405C32.8628 9.19146 32.4474 8.24229 32.4474 7.2849H29.4474ZM31.6318 12.1297C33.0071 13.3852 34.8455 14.0698 36.7368 14.0698V11.0698C35.5573 11.0698 34.4505 10.6408 33.6544 9.91405L31.6318 12.1297ZM36.7368 14.0698C38.6282 14.0698 40.4666 13.3852 41.8419 12.1297L39.8193 9.91405C39.0232 10.6408 37.9164 11.0698 36.7368 11.0698V14.0698ZM41.8419 12.1297C43.2218 10.8701 44.0263 9.13079 44.0263 7.2849H41.0263C41.0263 8.24229 40.6109 9.19146 39.8193 9.91405L41.8419 12.1297ZM44.0263 49.5641C44.0263 47.7182 43.2218 45.9789 41.8419 44.7193L39.8193 46.9349C40.6109 47.6575 41.0263 48.6067 41.0263 49.5641H44.0263ZM41.8419 44.7193C40.4666 43.4638 38.6282 42.7792 36.7368 42.7792V45.7792C37.9164 45.7792 39.0232 46.2082 39.8193 46.9349L41.8419 44.7193ZM36.7368 42.7792C34.8455 42.7792 33.0071 43.4638 31.6318 44.7193L33.6544 46.9349C34.4505 46.2082 35.5573 45.7792 36.7368 45.7792V42.7792ZM31.6318 44.7193C30.2519 45.9789 29.4474 47.7182 29.4474 49.5641H32.4474C32.4474 48.6067 32.8628 47.6575 33.6544 46.9349L31.6318 44.7193ZM29.4474 49.5641C29.4474 51.41 30.2519 53.1493 31.6318 54.4089L33.6544 52.1932C32.8628 51.4707 32.4474 50.5215 32.4474 49.5641H29.4474ZM31.6318 54.4089C33.0071 55.6644 34.8455 56.349 36.7368 56.349V53.349C35.5573 53.349 34.4505 52.92 33.6544 52.1932L31.6318 54.4089ZM36.7368 56.349C38.6282 56.349 40.4666 55.6644 41.8419 54.4089L39.8193 52.1932C39.0232 52.92 37.9164 53.349 36.7368 53.349V56.349ZM41.8419 54.4089C43.2218 53.1493 44.0263 51.41 44.0263 49.5641H41.0263C41.0263 50.5215 40.6109 51.4707 39.8193 52.1932L41.8419 54.4089ZM29.5526 28.4245C29.5526 26.5786 28.7481 24.8393 27.3682 23.5797L25.3456 25.7953C26.1372 26.5179 26.5526 27.4671 26.5526 28.4245H29.5526ZM27.3682 23.5797C25.9929 22.3242 24.1545 21.6396 22.2632 21.6396V24.6396C23.4427 24.6396 24.5495 25.0686 25.3456 25.7953L27.3682 23.5797ZM22.2632 21.6396C20.3718 21.6396 18.5334 22.3242 17.1581 23.5797L19.1807 25.7953C19.9768 25.0686 21.0836 24.6396 22.2632 24.6396V21.6396ZM17.1581 23.5797C15.7782 24.8393 14.9737 26.5786 14.9737 28.4245H17.9737C17.9737 27.4671 18.3891 26.5179 19.1807 25.7953L17.1581 23.5797ZM14.9737 28.4245C14.9737 30.2704 15.7782 32.0097 17.1581 33.2693L19.1807 31.0536C18.3891 30.3311 17.9737 29.3819 17.9737 28.4245H14.9737ZM17.1581 33.2693C18.5334 34.5248 20.3718 35.2094 22.2632 35.2094V32.2094C21.0836 32.2094 19.9768 31.7804 19.1807 31.0536L17.1581 33.2693ZM22.2632 35.2094C24.1545 35.2094 25.9929 34.5248 27.3682 33.2693L25.3456 31.0536C24.5495 31.7804 23.4427 32.2094 22.2632 32.2094V35.2094ZM27.3682 33.2693C28.7481 32.0097 29.5526 30.2704 29.5526 28.4245H26.5526C26.5526 29.3819 26.1372 30.3311 25.3456 31.0536L27.3682 33.2693ZM58.5 28.4245C58.5 26.5786 57.6955 24.8393 56.3156 23.5797L54.293 25.7953C55.0846 26.5179 55.5 27.4671 55.5 28.4245H58.5ZM56.3156 23.5797C54.9403 22.3242 53.1019 21.6396 51.2105 21.6396V24.6396C52.3901 24.6396 53.4969 25.0686 54.293 25.7953L56.3156 23.5797ZM51.2105 21.6396C49.3191 21.6396 47.4808 22.3242 46.1055 23.5797L48.128 25.7953C48.9242 25.0686 50.031 24.6396 51.2105 24.6396V21.6396ZM46.1055 23.5797C44.7256 24.8393 43.9211 26.5786 43.9211 28.4245H46.9211C46.9211 27.4671 47.3365 26.5179 48.128 25.7953L46.1055 23.5797ZM43.9211 28.4245C43.9211 30.2704 44.7256 32.0097 46.1055 33.2693L48.128 31.0536C47.3365 30.3311 46.9211 29.3819 46.9211 28.4245H43.9211ZM46.1055 33.2693C47.4808 34.5248 49.3191 35.2094 51.2105 35.2094V32.2094C50.031 32.2094 48.9242 31.7804 48.128 31.0536L46.1055 33.2693ZM51.2105 35.2094C53.1019 35.2094 54.9403 34.5248 56.3156 33.2693L54.293 31.0536C53.4969 31.7804 52.3901 32.2094 51.2105 32.2094V35.2094ZM56.3156 33.2693C57.6955 32.0097 58.5 30.2704 58.5 28.4245H55.5C55.5 29.3819 55.0846 30.3311 54.293 31.0536L56.3156 33.2693ZM12.0913 45.9334L20.4282 33.7623L17.9531 32.0669L9.6163 44.238L12.0913 45.9334ZM26.5709 24.7882L34.8991 12.6223L32.4236 10.9277L24.0954 23.0935L26.5709 24.7882ZM24.1069 33.7777L32.4322 45.933L34.9073 44.2377L26.582 32.0825L24.1069 33.7777ZM38.5748 12.6224L46.9145 24.8041L49.39 23.1093L41.0502 10.9276L38.5748 12.6224Z" fill="#BF5DF9"/>
</svg>
