<svg width="74" height="61" viewBox="0 0 74 61" fill="none" xmlns="http://www.w3.org/2000/svg">
<path d="M18.2995 43.5165C9.2975 43.5165 2 37.1069 2 29.1996C2 21.2954 9.2975 14.8858 18.2995 14.8858C19.675 9.25869 24.5785 4.66629 31.162 2.83636C37.742 1.00961 45.008 2.21999 50.216 6.02996C55.424 9.83035 57.783 15.6331 56.411 21.2603H59.876C66.5715 21.2603 72 26.2423 72 32.3932C72 38.5472 66.5715 43.5293 59.8725 43.5293H18.2995" fill="#E4C1F9"/>
<path d="M37 43.5168V59.4849V43.5168Z" fill="#E4C1F9"/>
<path d="M18.2995 45.0165C19.1279 45.0165 19.7995 44.3449 19.7995 43.5165C19.7995 42.6881 19.1279 42.0165 18.2995 42.0165V45.0165ZM18.2995 14.8858V16.3858C18.9907 16.3858 19.5925 15.9135 19.7566 15.242L18.2995 14.8858ZM31.162 2.83636L30.7607 1.39102L30.7603 1.39115L31.162 2.83636ZM50.216 6.02996L49.3303 7.24059L49.3318 7.24165L50.216 6.02996ZM56.411 21.2603L54.9537 20.9049C54.8446 21.3522 54.947 21.8248 55.2314 22.1868C55.5158 22.5489 55.9506 22.7603 56.411 22.7603V21.2603ZM18.2995 42.0293C17.4711 42.0293 16.7995 42.7008 16.7995 43.5293C16.7995 44.3577 17.4711 45.0293 18.2995 45.0293V42.0293ZM38.5 43.5168C38.5 42.6884 37.8284 42.0168 37 42.0168C36.1716 42.0168 35.5 42.6884 35.5 43.5168H38.5ZM35.5 59.4849C35.5 60.3133 36.1716 60.9849 37 60.9849C37.8284 60.9849 38.5 60.3133 38.5 59.4849H35.5ZM52.5 43.5168C52.5 42.6884 51.8284 42.0168 51 42.0168C50.1716 42.0168 49.5 42.6884 49.5 43.5168H52.5ZM68.5 60.9849C69.3284 60.9849 70 60.3133 70 59.4849C70 58.6564 69.3284 57.9849 68.5 57.9849V60.9849ZM24.5 43.5168C24.5 42.6884 23.8284 42.0168 23 42.0168C22.1716 42.0168 21.5 42.6884 21.5 43.5168H24.5ZM5.5 57.9849C4.67157 57.9849 4 58.6564 4 59.4849C4 60.3133 4.67157 60.9849 5.5 60.9849V57.9849ZM18.2995 42.0165C9.93722 42.0165 3.5 36.1016 3.5 29.1996H0.5C0.5 38.1122 8.65778 45.0165 18.2995 45.0165V42.0165ZM3.5 29.1996C3.5 22.3009 9.93699 16.3858 18.2995 16.3858V13.3858C8.65801 13.3858 0.5 20.2899 0.5 29.1996H3.5ZM19.7566 15.242C20.9777 10.2464 25.3907 5.99739 31.5637 4.28156L30.7603 1.39115C23.7663 3.33519 18.3723 8.27098 16.8424 14.5296L19.7566 15.242ZM31.5633 4.28169C37.7327 2.56892 44.5186 3.72051 49.3303 7.24059L51.1016 4.81933C45.4974 0.719465 37.7513 -0.549693 30.7607 1.39102L31.5633 4.28169ZM49.3318 7.24165C54.1202 10.7358 56.162 15.9491 54.9537 20.9049L57.8683 21.6156C59.404 15.3172 56.7278 8.92486 51.1002 4.81827L49.3318 7.24165ZM56.411 22.7603H59.876V19.7603H56.411V22.7603ZM59.876 22.7603C65.8663 22.7603 70.5 27.1888 70.5 32.3932H73.5C73.5 25.2958 67.2767 19.7603 59.876 19.7603V22.7603ZM70.5 32.3932C70.5 37.6007 65.8663 42.0293 59.8725 42.0293V45.0293C67.2767 45.0293 73.5 39.4937 73.5 32.3932H70.5ZM59.8725 42.0293H18.2995V45.0293H59.8725V42.0293ZM35.5 43.5168V59.4849H38.5V43.5168H35.5ZM49.5 43.5168V56.2913H52.5V43.5168H49.5ZM49.5 56.2913C49.5 57.5827 50.0635 58.7902 51.0141 59.6575L53.0362 57.4414C52.674 57.111 52.5 56.6938 52.5 56.2913H49.5ZM51.0141 59.6575C51.9601 60.5207 53.216 60.9849 54.5 60.9849V57.9849C53.9275 57.9849 53.4029 57.7761 53.0362 57.4414L51.0141 59.6575ZM54.5 60.9849H68.5V57.9849H54.5V60.9849ZM21.5 43.5168V56.2913H24.5V43.5168H21.5ZM21.5 56.2913C21.5 56.6938 21.326 57.111 20.9638 57.4414L22.9859 59.6575C23.9365 58.7902 24.5 57.5827 24.5 56.2913H21.5ZM20.9638 57.4414C20.5971 57.7761 20.0725 57.9849 19.5 57.9849V60.9849C20.784 60.9849 22.0399 60.5207 22.9859 59.6575L20.9638 57.4414ZM19.5 57.9849H5.5V60.9849H19.5V57.9849Z" fill="#BF5DF9"/>
<path d="M33.6667 22.862C33.6667 23.4143 34.1144 23.862 34.6667 23.862C35.219 23.862 35.6667 23.4143 35.6667 22.862H33.6667ZM34.6667 15.9082H35.6667C35.6667 15.3559 35.219 14.9082 34.6667 14.9082V15.9082ZM33.3333 14.9082C32.781 14.9082 32.3333 15.3559 32.3333 15.9082C32.3333 16.4605 32.781 16.9082 33.3333 16.9082V14.9082ZM43 35.3789C43 35.9312 43.4477 36.3789 44 36.3789C44.5523 36.3789 45 35.9312 45 35.3789H43ZM44 28.4251H45C45 27.8728 44.5523 27.4251 44 27.4251V28.4251ZM42.6667 27.4251C42.1144 27.4251 41.6667 27.8728 41.6667 28.4251C41.6667 28.9774 42.1144 29.4251 42.6667 29.4251V27.4251ZM28 21.862C27.4477 21.862 27 22.3097 27 22.862C27 23.4143 27.4477 23.862 28 23.862V21.862ZM28.0133 23.862C28.5656 23.862 29.0133 23.4143 29.0133 22.862C29.0133 22.3097 28.5656 21.862 28.0133 21.862V23.862ZM28 34.3789C27.4477 34.3789 27 34.8266 27 35.3789C27 35.9312 27.4477 36.3789 28 36.3789V34.3789ZM28.0133 36.3789C28.5656 36.3789 29.0133 35.9312 29.0133 35.3789C29.0133 34.8266 28.5656 34.3789 28.0133 34.3789V36.3789ZM35.6667 22.862V15.9082H33.6667V22.862H35.6667ZM34.6667 14.9082H33.3333V16.9082H34.6667V14.9082ZM45 35.3789V28.4251H43V35.3789H45ZM44 27.4251H42.6667V29.4251H44V27.4251ZM41 16.6036C41 16.6711 40.9747 16.7439 40.9171 16.8039L39.4734 15.4198C39.1658 15.7407 39 16.1672 39 16.6036H41ZM40.9171 16.8039C40.8582 16.8654 40.769 16.9082 40.6667 16.9082V14.9082C40.2107 14.9082 39.7824 15.0975 39.4734 15.4198L40.9171 16.8039ZM40.6667 16.9082H43.3333V14.9082H40.6667V16.9082ZM43.3333 16.9082C43.231 16.9082 43.1418 16.8654 43.0829 16.8039L44.5266 15.4198C44.2176 15.0975 43.7893 14.9082 43.3333 14.9082V16.9082ZM43.0829 16.8039C43.0253 16.7439 43 16.6711 43 16.6036H45C45 16.1672 44.8342 15.7407 44.5266 15.4198L43.0829 16.8039ZM43 16.6036V22.1666H45V16.6036H43ZM43 22.1666C43 22.0991 43.0253 22.0264 43.0829 21.9663L44.5266 23.3504C44.8342 23.0295 45 22.603 45 22.1666H43ZM43.0829 21.9663C43.1418 21.9048 43.231 21.862 43.3333 21.862V23.862C43.7893 23.862 44.2176 23.6727 44.5266 23.3504L43.0829 21.9663ZM43.3333 21.862H40.6667V23.862H43.3333V21.862ZM40.6667 21.862C40.769 21.862 40.8582 21.9048 40.9171 21.9663L39.4734 23.3504C39.7824 23.6727 40.2107 23.862 40.6667 23.862V21.862ZM40.9171 21.9663C40.9747 22.0264 41 22.0991 41 22.1666H39C39 22.603 39.1658 23.0295 39.4734 23.3504L40.9171 21.9663ZM41 22.1666V16.6036H39V22.1666H41ZM34.3333 29.1205C34.3333 29.188 34.308 29.2607 34.2504 29.3208L32.8067 27.9367C32.4991 28.2576 32.3333 28.6841 32.3333 29.1205H34.3333ZM34.2504 29.3208C34.1915 29.3823 34.1023 29.4251 34 29.4251V27.4251C33.544 27.4251 33.1157 27.6144 32.8067 27.9367L34.2504 29.3208ZM34 29.4251H36.6667V27.4251H34V29.4251ZM36.6667 29.4251C36.5643 29.4251 36.4752 29.3823 36.4162 29.3208L37.8599 27.9367C37.5509 27.6144 37.1226 27.4251 36.6667 27.4251V29.4251ZM36.4162 29.3208C36.3586 29.2607 36.3333 29.188 36.3333 29.1205H38.3333C38.3333 28.6841 38.1675 28.2576 37.8599 27.9367L36.4162 29.3208ZM36.3333 29.1205V34.6835H38.3333V29.1205H36.3333ZM36.3333 34.6835C36.3333 34.616 36.3586 34.5432 36.4162 34.4832L37.8599 35.8673C38.1675 35.5464 38.3333 35.1199 38.3333 34.6835H36.3333ZM36.4162 34.4832C36.4752 34.4217 36.5643 34.3789 36.6667 34.3789V36.3789C37.1226 36.3789 37.5509 36.1896 37.8599 35.8673L36.4162 34.4832ZM36.6667 34.3789H34V36.3789H36.6667V34.3789ZM34 34.3789C34.1023 34.3789 34.1915 34.4217 34.2504 34.4832L32.8067 35.8673C33.1157 36.1896 33.544 36.3789 34 36.3789V34.3789ZM34.2504 34.4832C34.308 34.5432 34.3333 34.616 34.3333 34.6835H32.3333C32.3333 35.1199 32.4991 35.5464 32.8067 35.8673L34.2504 34.4832ZM34.3333 34.6835V29.1205H32.3333V34.6835H34.3333ZM28 23.862H28.0133V21.862H28V23.862ZM28 36.3789H28.0133V34.3789H28V36.3789Z" fill="white"/>
</svg>
