<svg width="72" height="71" viewBox="0 0 72 71" fill="none" xmlns="http://www.w3.org/2000/svg">
<path d="M13.3333 23.081C13.3333 28.6721 15.7214 34.0341 19.9722 37.9876C24.2231 41.941 29.9884 44.1621 36 44.1621C42.0116 44.1621 47.7769 41.941 52.0278 37.9876C56.2786 34.0341 58.6667 28.6721 58.6667 23.081C58.6667 17.49 56.2786 12.128 52.0278 8.17449C47.7769 4.22103 42.0116 2 36 2C29.9884 2 24.2231 4.22103 19.9722 8.17449C15.7214 12.128 13.3333 17.49 13.3333 23.081Z" fill="#E4C1F9"/>
<path d="M36 2C41.0358 3.17 43.5556 10.197 43.5556 23.081C43.5556 35.9651 41.0358 42.9921 36 44.1621" fill="#E4C1F9"/>
<path d="M36 2C30.9642 3.17 28.4444 10.197 28.4444 23.081C28.4444 35.9651 30.9642 42.9921 36 44.1621" fill="#E4C1F9"/>
<path d="M13.3333 23.081H58.6667H13.3333Z" fill="#E4C1F9"/>
<path d="M2 61.7296H28.4444H2Z" fill="#E4C1F9"/>
<path d="M43.5556 61.7296H70H43.5556Z" fill="#E4C1F9"/>
<path d="M28.4444 61.7296C28.4444 63.5933 29.2405 65.3806 30.6574 66.6985C32.0744 68.0163 33.9961 68.7566 36 68.7566C38.0039 68.7566 39.9256 68.0163 41.3426 66.6985C42.7595 65.3806 43.5556 63.5933 43.5556 61.7296C43.5556 59.8659 42.7595 58.0786 41.3426 56.7608C39.9256 55.4429 38.0039 54.7026 36 54.7026C33.9961 54.7026 32.0744 55.4429 30.6574 56.7608C29.2405 58.0786 28.4444 59.8659 28.4444 61.7296Z" fill="#E4C1F9"/>
<path d="M36 44.1621V54.7026V44.1621Z" fill="#E4C1F9"/>
<path d="M13.3333 23.081H11.3333H13.3333ZM36 2V0V2ZM2 59.7296C0.89543 59.7296 0 60.625 0 61.7296C0 62.8342 0.89543 63.7296 2 63.7296V59.7296ZM70 63.7296C71.1046 63.7296 72 62.8342 72 61.7296C72 60.625 71.1046 59.7296 70 59.7296V63.7296ZM30.6574 66.6985L29.2954 68.163L30.6574 66.6985ZM41.3426 66.6985L42.7046 68.163L41.3426 66.6985ZM11.3333 23.081C11.3333 29.2512 13.9701 35.1366 18.6102 39.4521L21.3343 36.5231C17.4727 32.9316 15.3333 28.0929 15.3333 23.081H11.3333ZM18.6102 39.4521C23.2454 43.763 29.5029 46.1621 36 46.1621V42.1621C30.4739 42.1621 25.2008 40.1191 21.3343 36.5231L18.6102 39.4521ZM36 46.1621C42.4971 46.1621 48.7547 43.763 53.3898 39.4521L50.6657 36.5231C46.7992 40.1191 41.5261 42.1621 36 42.1621V46.1621ZM53.3898 39.4521C58.0299 35.1366 60.6667 29.2512 60.6667 23.081H56.6667C56.6667 28.0929 54.5273 32.9316 50.6657 36.5231L53.3898 39.4521ZM60.6667 23.081C60.6667 16.9108 58.0299 11.0255 53.3898 6.70998L50.6657 9.639C54.5273 13.2305 56.6667 18.0692 56.6667 23.081H60.6667ZM53.3898 6.70998C48.7547 2.39906 42.4971 0 36 0V4C41.5261 4 46.7992 6.043 50.6657 9.639L53.3898 6.70998ZM36 0C29.5029 0 23.2454 2.39906 18.6102 6.70998L21.3343 9.639C25.2008 6.043 30.4739 4 36 4V0ZM18.6102 6.70998C13.9701 11.0255 11.3333 16.9108 11.3333 23.081H15.3333C15.3333 18.0692 17.4727 13.2305 21.3343 9.639L18.6102 6.70998ZM35.5474 3.94811C37.1381 4.3177 38.6433 5.64178 39.7835 8.82261C40.9287 12.0175 41.5556 16.7273 41.5556 23.081H45.5556C45.5556 16.5507 44.9225 11.305 43.5489 7.4729C42.1702 3.62672 39.8977 0.852299 36.4526 0.0518889L35.5474 3.94811ZM41.5556 23.081C41.5556 29.4348 40.9287 34.1446 39.7835 37.3395C38.6433 40.5203 37.1381 41.8444 35.5474 42.214L36.4526 46.1102C39.8977 45.3098 42.1702 42.5354 43.5489 38.6892C44.9225 34.857 45.5556 29.6113 45.5556 23.081H41.5556ZM35.5474 0.0518889C32.1023 0.852299 29.8298 3.62672 28.4511 7.4729C27.0775 11.305 26.4444 16.5507 26.4444 23.081H30.4444C30.4444 16.7273 31.0713 12.0175 32.2165 8.82261C33.3567 5.64178 34.8619 4.3177 36.4526 3.94811L35.5474 0.0518889ZM26.4444 23.081C26.4444 29.6113 27.0775 34.857 28.4511 38.6892C29.8298 42.5354 32.1023 45.3098 35.5474 46.1102L36.4526 42.214C34.8619 41.8444 33.3567 40.5203 32.2165 37.3395C31.0713 34.1446 30.4444 29.4348 30.4444 23.081H26.4444ZM13.3333 25.081H58.6667V21.081H13.3333V25.081ZM2 63.7296H28.4444V59.7296H2V63.7296ZM43.5556 63.7296H70V59.7296H43.5556V63.7296ZM26.4444 61.7296C26.4444 64.1725 27.4892 66.4831 29.2954 68.163L32.0195 65.2339C30.9918 64.2781 30.4444 63.0141 30.4444 61.7296H26.4444ZM29.2954 68.163C31.0966 69.8382 33.5106 70.7566 36 70.7566V66.7566C34.4817 66.7566 33.0521 66.1943 32.0195 65.2339L29.2954 68.163ZM36 70.7566C38.4894 70.7566 40.9034 69.8382 42.7046 68.163L39.9805 65.2339C38.9479 66.1943 37.5183 66.7566 36 66.7566V70.7566ZM42.7046 68.163C44.5108 66.4831 45.5556 64.1725 45.5556 61.7296H41.5556C41.5556 63.0141 41.0082 64.2781 39.9805 65.2339L42.7046 68.163ZM45.5556 61.7296C45.5556 59.2868 44.5108 56.9761 42.7046 55.2963L39.9805 58.2253C41.0082 59.1811 41.5556 60.4451 41.5556 61.7296H45.5556ZM42.7046 55.2963C40.9034 53.621 38.4894 52.7026 36 52.7026V56.7026C37.5183 56.7026 38.9479 57.2649 39.9805 58.2253L42.7046 55.2963ZM36 52.7026C33.5106 52.7026 31.0966 53.621 29.2954 55.2963L32.0195 58.2253C33.0521 57.2649 34.4817 56.7026 36 56.7026V52.7026ZM29.2954 55.2963C27.4892 56.9761 26.4444 59.2868 26.4444 61.7296H30.4444C30.4444 60.4451 30.9918 59.1811 32.0195 58.2253L29.2954 55.2963ZM34 44.1621V54.7026H38V44.1621H34Z" fill="#BF5DF9"/>
</svg>
