<svg width="88" height="75" viewBox="0 0 88 75" fill="none" xmlns="http://www.w3.org/2000/svg">
<circle cx="43.5" cy="37.5" r="36.5" stroke="#E4C1F9" stroke-width="2" stroke-linejoin="round" stroke-dasharray="3 3"/>
<path d="M20.6429 20V27.4174C20.6429 27.9092 20.8611 28.3809 21.2496 28.7286C21.638 29.0764 22.1649 29.2718 22.7143 29.2718H31" fill="#E4C1F9"/>
<path d="M26.8571 53.3783H6.14286C5.0441 53.3783 3.99035 52.9876 3.21341 52.2921C2.43648 51.5965 2 50.6532 2 49.6696V23.7087C2 22.7251 2.43648 21.7818 3.21341 21.0863C3.99035 20.3907 5.0441 20 6.14286 20H20.6429L31 29.2718V49.6696C31 50.6532 30.5635 51.5965 29.7866 52.2921C29.0096 52.9876 27.9559 53.3783 26.8571 53.3783Z" fill="#E4C1F9"/>
<path d="M10.2857 31.1261H12.3571H10.2857Z" fill="#E4C1F9"/>
<path d="M10.2857 38.5435H22.7143H10.2857Z" fill="#E4C1F9"/>
<path d="M10.2857 45.9609H22.7143H10.2857Z" fill="#E4C1F9"/>
<path d="M20.6429 20L21.6433 18.8824C21.3683 18.6362 21.012 18.5 20.6429 18.5V20ZM31 29.2718H32.5C32.5 28.8451 32.3183 28.4387 32.0005 28.1542L31 29.2718ZM2 49.6696H0.5H2ZM6.14286 20V18.5V20ZM10.2857 29.6261C9.45729 29.6261 8.78571 30.2977 8.78571 31.1261C8.78571 31.9545 9.45729 32.6261 10.2857 32.6261V29.6261ZM12.3571 32.6261C13.1856 32.6261 13.8571 31.9545 13.8571 31.1261C13.8571 30.2977 13.1856 29.6261 12.3571 29.6261V32.6261ZM10.2857 37.0435C9.45729 37.0435 8.78571 37.7151 8.78571 38.5435C8.78571 39.3719 9.45729 40.0435 10.2857 40.0435V37.0435ZM22.7143 40.0435C23.5427 40.0435 24.2143 39.3719 24.2143 38.5435C24.2143 37.7151 23.5427 37.0435 22.7143 37.0435V40.0435ZM10.2857 44.4609C9.45729 44.4609 8.78571 45.1325 8.78571 45.9609C8.78571 46.7893 9.45729 47.4609 10.2857 47.4609V44.4609ZM22.7143 47.4609C23.5427 47.4609 24.2143 46.7893 24.2143 45.9609C24.2143 45.1325 23.5427 44.4609 22.7143 44.4609V47.4609ZM19.1429 20V27.4174H22.1429V20H19.1429ZM19.1429 27.4174C19.1429 28.364 19.5644 29.2333 20.2491 29.8462L22.25 27.611C22.1578 27.5285 22.1429 27.4544 22.1429 27.4174H19.1429ZM20.2491 29.8462C20.9284 30.4543 21.8174 30.7718 22.7143 30.7718V27.7718C22.5124 27.7718 22.3477 27.6985 22.25 27.611L20.2491 29.8462ZM22.7143 30.7718H31V27.7718H22.7143V30.7718ZM26.8571 51.8783H6.14286V54.8783H26.8571V51.8783ZM6.14286 51.8783C5.39162 51.8783 4.70003 51.6096 4.2139 51.1745L2.21293 53.4097C3.28067 54.3655 4.69658 54.8783 6.14286 54.8783V51.8783ZM4.2139 51.1745C3.73321 50.7441 3.5 50.1984 3.5 49.6696H0.5C0.5 51.108 1.13975 52.4489 2.21293 53.4097L4.2139 51.1745ZM3.5 49.6696V23.7087H0.5V49.6696H3.5ZM3.5 23.7087C3.5 23.1799 3.73321 22.6342 4.2139 22.2039L2.21293 19.9687C1.13974 20.9294 0.5 22.2703 0.5 23.7087H3.5ZM4.2139 22.2039C4.70003 21.7687 5.39162 21.5 6.14286 21.5V18.5C4.69659 18.5 3.28067 19.0128 2.21293 19.9687L4.2139 22.2039ZM6.14286 21.5H20.6429V18.5H6.14286V21.5ZM19.6424 21.1176L29.9995 30.3894L32.0005 28.1542L21.6433 18.8824L19.6424 21.1176ZM29.5 29.2718V49.6696H32.5V29.2718H29.5ZM29.5 49.6696C29.5 50.1984 29.2668 50.7441 28.7861 51.1745L30.7871 53.4097C31.8603 52.4489 32.5 51.108 32.5 49.6696H29.5ZM28.7861 51.1745C28.3 51.6096 27.6084 51.8783 26.8571 51.8783V54.8783C28.3034 54.8783 29.7193 54.3655 30.7871 53.4097L28.7861 51.1745ZM10.2857 32.6261H12.3571V29.6261H10.2857V32.6261ZM10.2857 40.0435H22.7143V37.0435H10.2857V40.0435ZM10.2857 47.4609H22.7143V44.4609H10.2857V47.4609Z" fill="#BF5DF9"/>
<path d="M75.6429 20V27.4174C75.6429 27.9092 75.8611 28.3809 76.2496 28.7286C76.638 29.0764 77.1649 29.2718 77.7143 29.2718H86" fill="#E4C1F9"/>
<path d="M81.8571 53.3783H61.1429C60.0441 53.3783 58.9904 52.9876 58.2134 52.2921C57.4365 51.5965 57 50.6532 57 49.6696V23.7087C57 22.7251 57.4365 21.7818 58.2134 21.0863C58.9904 20.3907 60.0441 20 61.1429 20H75.6429L86 29.2718V49.6696C86 50.6532 85.5635 51.5965 84.7866 52.2921C84.0096 52.9876 82.9559 53.3783 81.8571 53.3783Z" fill="#E4C1F9"/>
<path d="M71.0862 45.6224L66.5871 47.7327C66.4535 47.7949 66.3033 47.8226 66.1532 47.8129C66.0031 47.8031 65.859 47.7561 65.7369 47.6773C65.6149 47.5984 65.5197 47.4907 65.4621 47.3663C65.4044 47.2418 65.3866 47.1054 65.4105 46.9724L66.2701 42.5016L62.6306 39.3362C62.522 39.2422 62.4451 39.1227 62.4087 38.9914C62.3722 38.8602 62.3778 38.7224 62.4247 38.5938C62.4715 38.4652 62.5578 38.351 62.6737 38.2642C62.7896 38.1774 62.9305 38.1216 63.0801 38.103L68.1096 37.4503L70.3591 33.3837C70.4264 33.2626 70.5301 33.1607 70.6586 33.0894C70.787 33.0182 70.9351 32.9805 71.0862 32.9805C71.2373 32.9805 71.3854 33.0182 71.5139 33.0894C71.6423 33.1607 71.746 33.2626 71.8133 33.3837L74.0628 37.4503L79.0923 38.103C79.2415 38.1222 79.3817 38.1785 79.4971 38.2653C79.6125 38.3522 79.6985 38.4662 79.7452 38.5945C79.792 38.7228 79.7977 38.8603 79.7618 38.9913C79.7258 39.1224 79.6496 39.2419 79.5418 39.3362L75.9023 42.5016L76.7598 46.9705C76.7856 47.1038 76.7691 47.2409 76.7122 47.3661C76.6553 47.4914 76.5603 47.5999 76.4379 47.6793C76.3156 47.7587 76.1709 47.8057 76.0202 47.8152C75.8695 47.8246 75.7188 47.796 75.5854 47.7327L71.0862 45.6224Z" fill="#E4C1F9"/>
<path d="M75.6429 20L76.6433 18.8824C76.3683 18.6362 76.012 18.5 75.6429 18.5V20ZM86 29.2718H87.5C87.5 28.8451 87.3183 28.4387 87.0005 28.1542L86 29.2718ZM57 49.6696H55.5H57ZM61.1429 20V18.5V20ZM71.0862 45.6224L71.7232 44.2644C71.3196 44.0751 70.8528 44.0751 70.4492 44.2644L71.0862 45.6224ZM66.5871 47.7327L67.2206 49.0923L67.224 49.0907L66.5871 47.7327ZM65.4105 46.9724L63.9375 46.6892C63.9363 46.6951 63.9352 46.7011 63.9342 46.707L65.4105 46.9724ZM66.2701 42.5016L67.7432 42.7848C67.8441 42.2597 67.6579 41.7206 67.2545 41.3697L66.2701 42.5016ZM62.6306 39.3362L63.615 38.2044L63.6122 38.2019L62.6306 39.3362ZM63.0801 38.103L63.2647 39.5917L63.2732 39.5906L63.0801 38.103ZM68.1096 37.4503L68.3026 38.9378C68.7756 38.8764 69.1912 38.5938 69.4221 38.1764L68.1096 37.4503ZM70.3591 33.3837L69.0478 32.6553L69.0466 32.6576L70.3591 33.3837ZM71.8133 33.3837L73.1258 32.6576L73.1246 32.6553L71.8133 33.3837ZM74.0628 37.4503L72.7503 38.1764C72.9812 38.5938 73.3968 38.8764 73.8698 38.9378L74.0628 37.4503ZM79.0923 38.103L78.8992 39.5906L78.9007 39.5907L79.0923 38.103ZM79.5418 39.3362L80.5262 40.468L80.5292 40.4653L79.5418 39.3362ZM75.9023 42.5016L74.9179 41.3697C74.5146 41.7205 74.3284 42.2593 74.4292 42.7842L75.9023 42.5016ZM76.7598 46.9705L75.2867 47.2532L75.2871 47.255L76.7598 46.9705ZM75.5854 47.7327L76.2286 46.3776L76.2223 46.3746L75.5854 47.7327ZM74.1429 20V27.4174H77.1429V20H74.1429ZM74.1429 27.4174C74.1429 28.364 74.5644 29.2333 75.2491 29.8462L77.25 27.611C77.1578 27.5285 77.1429 27.4544 77.1429 27.4174H74.1429ZM75.2491 29.8462C75.9284 30.4543 76.8174 30.7718 77.7143 30.7718V27.7718C77.5124 27.7718 77.3477 27.6985 77.25 27.611L75.2491 29.8462ZM77.7143 30.7718H86V27.7718H77.7143V30.7718ZM81.8571 51.8783H61.1429V54.8783H81.8571V51.8783ZM61.1429 51.8783C60.3916 51.8783 59.7 51.6096 59.2139 51.1745L57.2129 53.4097C58.2807 54.3655 59.6966 54.8783 61.1429 54.8783V51.8783ZM59.2139 51.1745C58.7332 50.7441 58.5 50.1984 58.5 49.6696H55.5C55.5 51.108 56.1397 52.4489 57.2129 53.4097L59.2139 51.1745ZM58.5 49.6696V23.7087H55.5V49.6696H58.5ZM58.5 23.7087C58.5 23.1799 58.7332 22.6342 59.2139 22.2039L57.2129 19.9687C56.1397 20.9294 55.5 22.2703 55.5 23.7087H58.5ZM59.2139 22.2039C59.7 21.7687 60.3916 21.5 61.1429 21.5V18.5C59.6966 18.5 58.2807 19.0128 57.2129 19.9687L59.2139 22.2039ZM61.1429 21.5H75.6429V18.5H61.1429V21.5ZM74.6424 21.1176L84.9995 30.3894L87.0005 28.1542L76.6433 18.8824L74.6424 21.1176ZM84.5 29.2718V49.6696H87.5V29.2718H84.5ZM84.5 49.6696C84.5 50.1984 84.2668 50.7441 83.7861 51.1745L85.7871 53.4097C86.8603 52.4489 87.5 51.108 87.5 49.6696H84.5ZM83.7861 51.1745C83.3 51.6096 82.6084 51.8783 81.8571 51.8783V54.8783C83.3034 54.8783 84.7193 54.3655 85.7871 53.4097L83.7861 51.1745ZM70.4492 44.2644L65.9501 46.3746L67.224 49.0907L71.7232 46.9805L70.4492 44.2644ZM65.9536 46.373C66.0534 46.3265 66.1552 46.3098 66.2508 46.316L66.0557 49.3097C66.4515 49.3355 66.8537 49.2633 67.2206 49.0923L65.9536 46.373ZM66.2508 46.316C66.3464 46.3223 66.4506 46.3525 66.551 46.4174L64.9228 48.9371C65.2674 49.1598 65.6598 49.2839 66.0557 49.3097L66.2508 46.316ZM66.551 46.4174C66.6524 46.4829 66.7545 46.5875 66.8232 46.7359L64.101 47.9966C64.285 48.3939 64.5774 48.7139 64.9228 48.9371L66.551 46.4174ZM66.8232 46.7359C66.893 46.8866 66.9183 47.0627 66.8868 47.2378L63.9342 46.707C63.8549 47.1481 63.9159 47.5969 64.101 47.9966L66.8232 46.7359ZM66.8835 47.2556L67.7432 42.7848L64.7971 42.2183L63.9375 46.6892L66.8835 47.2556ZM67.2545 41.3697L63.615 38.2044L61.6463 40.468L65.2858 43.6334L67.2545 41.3697ZM63.6122 38.2019C63.7142 38.2902 63.8071 38.421 63.8541 38.5904L60.9633 39.3925C61.0831 39.8244 61.3298 40.1941 61.6491 40.4704L63.6122 38.2019ZM63.8541 38.5904C63.9016 38.7619 63.8936 38.9438 63.8339 39.1075L61.0154 38.0801C60.862 38.5009 60.8429 38.9585 60.9633 39.3925L63.8541 38.5904ZM63.8339 39.1075C63.7751 39.2688 63.6759 39.3878 63.5727 39.465L61.7748 37.0635C61.4398 37.3142 61.1679 37.6616 61.0154 38.0801L63.8339 39.1075ZM63.5727 39.465C63.4707 39.5413 63.363 39.5795 63.2647 39.5916L62.8956 36.6144C62.498 36.6637 62.1086 36.8136 61.7748 37.0635L63.5727 39.465ZM63.2732 39.5906L68.3026 38.9378L67.9165 35.9628L62.8871 36.6155L63.2732 39.5906ZM69.4221 38.1764L71.6717 34.1098L69.0466 32.6576L66.797 36.7242L69.4221 38.1764ZM71.6704 34.1121C71.5932 34.2511 71.4875 34.3449 71.3861 34.4012L69.931 31.7777C69.5727 31.9764 69.2596 32.274 69.0478 32.6553L71.6704 34.1121ZM71.3861 34.4012C71.2853 34.4571 71.182 34.4805 71.0862 34.4805V31.4805C70.6882 31.4805 70.2887 31.5793 69.931 31.7777L71.3861 34.4012ZM71.0862 34.4805C70.9904 34.4805 70.8871 34.4571 70.7863 34.4012L72.2414 31.7777C71.8838 31.5793 71.4842 31.4805 71.0862 31.4805V34.4805ZM70.7863 34.4012C70.6849 34.3449 70.5792 34.2512 70.502 34.1121L73.1246 32.6553C72.9128 32.274 72.5997 31.9764 72.2414 31.7777L70.7863 34.4012ZM70.5007 34.1098L72.7503 38.1764L75.3754 36.7242L73.1258 32.6576L70.5007 34.1098ZM73.8698 38.9378L78.8992 39.5906L79.2853 36.6155L74.2559 35.9628L73.8698 38.9378ZM78.9007 39.5907C78.8032 39.5782 78.6963 39.5399 78.5951 39.4638L80.3992 37.0669C80.0672 36.817 79.6798 36.6663 79.2839 36.6153L78.9007 39.5907ZM78.5951 39.4638C78.4928 39.3868 78.3944 39.2684 78.336 39.1082L81.1545 38.0808C81.0026 37.664 80.7323 37.3176 80.3992 37.0669L78.5951 39.4638ZM78.336 39.1082C78.2767 38.9457 78.2685 38.765 78.3152 38.5945L81.2083 39.3882C81.327 38.9556 81.3073 38.4999 81.1545 38.0808L78.336 39.1082ZM78.3152 38.5945C78.3615 38.426 78.4532 38.2955 78.5543 38.207L80.5292 40.4653C80.846 40.1883 81.0902 39.8189 81.2083 39.3882L78.3152 38.5945ZM78.5574 38.2044L74.9179 41.3697L76.8867 43.6334L80.5261 40.468L78.5574 38.2044ZM74.4292 42.7842L75.2867 47.2532L78.233 46.6879L77.3754 42.2189L74.4292 42.7842ZM75.2871 47.255C75.253 47.0784 75.2766 46.8995 75.3464 46.7458L78.0779 47.9865C78.2615 47.5822 78.3182 47.1292 78.2326 46.6861L75.2871 47.255ZM75.3464 46.7458C75.4151 46.5945 75.5185 46.4877 75.6214 46.421L77.2544 48.9376C77.602 48.7121 77.8954 48.3883 78.0779 47.9865L75.3464 46.7458ZM75.6214 46.421C75.7234 46.3548 75.8293 46.3242 75.9264 46.3181L76.1139 49.3122C76.5125 49.2873 76.9078 49.1625 77.2544 48.9376L75.6214 46.421ZM75.9264 46.3181C76.0236 46.312 76.1272 46.3294 76.2286 46.3776L74.9421 49.0878C75.3105 49.2626 75.7153 49.3372 76.1139 49.3122L75.9264 46.3181ZM76.2223 46.3746L71.7232 44.2644L70.4492 46.9805L74.9484 49.0907L76.2223 46.3746Z" fill="#BF5DF9"/>
</svg>
