<svg width="30" height="30" viewBox="0 0 30 30" fill="none" xmlns="http://www.w3.org/2000/svg">
<path d="M8.75 12.5V11.5C8.19772 11.5 7.75 11.9477 7.75 12.5H8.75ZM8.75 17.5H7.75C7.75 18.0523 8.19772 18.5 8.75 18.5V17.5ZM12.5 17.5H13.5C13.5 16.9477 13.0523 16.5 12.5 16.5V17.5ZM12.5 26.25H11.5C11.5 26.8023 11.9477 27.25 12.5 27.25V26.25ZM17.5 26.25V27.25C18.0523 27.25 18.5 26.8023 18.5 26.25H17.5ZM17.5 17.5V16.5C16.9477 16.5 16.5 16.9477 16.5 17.5H17.5ZM21.25 17.5V18.5C21.7089 18.5 22.1089 18.1877 22.2201 17.7425L21.25 17.5ZM22.5 12.5L23.4701 12.7425C23.5448 12.4438 23.4777 12.1273 23.2882 11.8846C23.0987 11.6419 22.8079 11.5 22.5 11.5V12.5ZM17.5 12.5H16.5C16.5 13.0523 16.9477 13.5 17.5 13.5V12.5ZM18.75 8.75V9.75V8.75ZM22.5 8.75V9.75C23.0523 9.75 23.5 9.30228 23.5 8.75H22.5ZM22.5 3.75H23.5C23.5 3.19772 23.0523 2.75 22.5 2.75V3.75ZM12.5 10H11.5H12.5ZM12.5 12.5V13.5C13.0523 13.5 13.5 13.0523 13.5 12.5H12.5ZM7.75 12.5V17.5H9.75V12.5H7.75ZM8.75 18.5H12.5V16.5H8.75V18.5ZM11.5 17.5V26.25H13.5V17.5H11.5ZM12.5 27.25H17.5V25.25H12.5V27.25ZM18.5 26.25V17.5H16.5V26.25H18.5ZM17.5 18.5H21.25V16.5H17.5V18.5ZM22.2201 17.7425L23.4701 12.7425L21.5299 12.2575L20.2799 17.2575L22.2201 17.7425ZM22.5 11.5H17.5V13.5H22.5V11.5ZM18.5 12.5V10H16.5V12.5H18.5ZM18.5 10C18.5 9.9337 18.5263 9.87011 18.5732 9.82322L17.159 8.40901C16.7371 8.83097 16.5 9.40326 16.5 10H18.5ZM18.5732 9.82322C18.6201 9.77634 18.6837 9.75 18.75 9.75V7.75C18.1533 7.75 17.581 7.98705 17.159 8.40901L18.5732 9.82322ZM18.75 9.75H22.5V7.75H18.75V9.75ZM23.5 8.75V3.75H21.5V8.75H23.5ZM22.5 2.75H18.75V4.75H22.5V2.75ZM18.75 2.75C16.8272 2.75 14.9831 3.51384 13.6235 4.87348L15.0377 6.28769C16.0223 5.30312 17.3576 4.75 18.75 4.75V2.75ZM13.6235 4.87348C12.2638 6.23311 11.5 8.07718 11.5 10H13.5C13.5 8.60761 14.0531 7.27226 15.0377 6.28769L13.6235 4.87348ZM11.5 10V12.5H13.5V10H11.5ZM12.5 11.5H8.75V13.5H12.5V11.5Z" fill="black"/>
</svg>
