<svg width="30" height="30" viewBox="0 0 30 30" fill="none" xmlns="http://www.w3.org/2000/svg">
<path d="M10 5V4V5ZM20 5V4V5ZM5 20H4H5ZM21.625 9.375C21.625 8.82272 21.1773 8.375 20.625 8.375C20.0727 8.375 19.625 8.82272 19.625 9.375H21.625ZM19.625 9.3875C19.625 9.93979 20.0727 10.3875 20.625 10.3875C21.1773 10.3875 21.625 9.93979 21.625 9.3875H19.625ZM6 10C6 8.93913 6.42143 7.92172 7.17157 7.17157L5.75736 5.75736C4.63214 6.88258 4 8.4087 4 10H6ZM7.17157 7.17157C7.92172 6.42143 8.93913 6 10 6V4C8.4087 4 6.88258 4.63214 5.75736 5.75736L7.17157 7.17157ZM10 6H20V4H10V6ZM20 6C21.0609 6 22.0783 6.42143 22.8284 7.17157L24.2426 5.75736C23.1174 4.63214 21.5913 4 20 4V6ZM22.8284 7.17157C23.5786 7.92172 24 8.93913 24 10H26C26 8.4087 25.3679 6.88258 24.2426 5.75736L22.8284 7.17157ZM24 10V20H26V10H24ZM24 20C24 21.0609 23.5786 22.0783 22.8284 22.8284L24.2426 24.2426C25.3679 23.1174 26 21.5913 26 20H24ZM22.8284 22.8284C22.0783 23.5786 21.0609 24 20 24V26C21.5913 26 23.1174 25.3679 24.2426 24.2426L22.8284 22.8284ZM20 24H10V26H20V24ZM10 24C8.93913 24 7.92172 23.5786 7.17157 22.8284L5.75736 24.2426C6.88258 25.3679 8.4087 26 10 26V24ZM7.17157 22.8284C6.42143 22.0783 6 21.0609 6 20H4C4 21.5913 4.63214 23.1174 5.75736 24.2426L7.17157 22.8284ZM6 20V10H4V20H6ZM10.25 15C10.25 16.2598 10.7504 17.468 11.6412 18.3588L13.0555 16.9445C12.5397 16.4288 12.25 15.7293 12.25 15H10.25ZM11.6412 18.3588C12.532 19.2496 13.7402 19.75 15 19.75V17.75C14.2707 17.75 13.5712 17.4603 13.0555 16.9445L11.6412 18.3588ZM15 19.75C16.2598 19.75 17.468 19.2496 18.3588 18.3588L16.9445 16.9445C16.4288 17.4603 15.7293 17.75 15 17.75V19.75ZM18.3588 18.3588C19.2496 17.468 19.75 16.2598 19.75 15H17.75C17.75 15.7293 17.4603 16.4288 16.9445 16.9445L18.3588 18.3588ZM19.75 15C19.75 13.7402 19.2496 12.532 18.3588 11.6412L16.9445 13.0555C17.4603 13.5712 17.75 14.2707 17.75 15H19.75ZM18.3588 11.6412C17.468 10.7504 16.2598 10.25 15 10.25V12.25C15.7293 12.25 16.4288 12.5397 16.9445 13.0555L18.3588 11.6412ZM15 10.25C13.7402 10.25 12.532 10.7504 11.6412 11.6412L13.0555 13.0555C13.5712 12.5397 14.2707 12.25 15 12.25V10.25ZM11.6412 11.6412C10.7504 12.532 10.25 13.7402 10.25 15H12.25C12.25 14.2707 12.5397 13.5712 13.0555 13.0555L11.6412 11.6412ZM19.625 9.375V9.3875H21.625V9.375H19.625Z" fill="black"/>
</svg>
