<svg width="30" height="30" viewBox="0 0 30 30" fill="none" xmlns="http://www.w3.org/2000/svg">
<path d="M7.5 5V4V5ZM22.5 5V4V5ZM5 22.5H4H5ZM11 13.75C11 13.1977 10.5523 12.75 10 12.75C9.44772 12.75 9 13.1977 9 13.75H11ZM9 20C9 20.5523 9.44772 21 10 21C10.5523 21 11 20.5523 11 20H9ZM11 10C11 9.44772 10.5523 9 10 9C9.44772 9 9 9.44772 9 10H11ZM9 10.0125C9 10.5648 9.44772 11.0125 10 11.0125C10.5523 11.0125 11 10.5648 11 10.0125H9ZM14 20C14 20.5523 14.4477 21 15 21C15.5523 21 16 20.5523 16 20H14ZM16 13.75C16 13.1977 15.5523 12.75 15 12.75C14.4477 12.75 14 13.1977 14 13.75H16ZM19 20C19 20.5523 19.4477 21 20 21C20.5523 21 21 20.5523 21 20H19ZM14 16.25C14 16.8023 14.4477 17.25 15 17.25C15.5523 17.25 16 16.8023 16 16.25H14ZM6 7.5C6 7.10217 6.15804 6.72064 6.43934 6.43934L5.02513 5.02513C4.36875 5.6815 4 6.57174 4 7.5H6ZM6.43934 6.43934C6.72064 6.15804 7.10217 6 7.5 6V4C6.57174 4 5.6815 4.36875 5.02513 5.02513L6.43934 6.43934ZM7.5 6H22.5V4H7.5V6ZM22.5 6C22.8978 6 23.2794 6.15804 23.5607 6.43934L24.9749 5.02513C24.3185 4.36875 23.4283 4 22.5 4V6ZM23.5607 6.43934C23.842 6.72064 24 7.10218 24 7.5H26C26 6.57174 25.6313 5.6815 24.9749 5.02513L23.5607 6.43934ZM24 7.5V22.5H26V7.5H24ZM24 22.5C24 22.8978 23.842 23.2794 23.5607 23.5607L24.9749 24.9749C25.6313 24.3185 26 23.4283 26 22.5H24ZM23.5607 23.5607C23.2794 23.842 22.8978 24 22.5 24V26C23.4283 26 24.3185 25.6313 24.9749 24.9749L23.5607 23.5607ZM22.5 24H7.5V26H22.5V24ZM7.5 24C7.10218 24 6.72064 23.842 6.43934 23.5607L5.02513 24.9749C5.6815 25.6313 6.57174 26 7.5 26V24ZM6.43934 23.5607C6.15804 23.2794 6 22.8978 6 22.5H4C4 23.4283 4.36875 24.3185 5.02513 24.9749L6.43934 23.5607ZM6 22.5V7.5H4V22.5H6ZM9 13.75V20H11V13.75H9ZM9 10V10.0125H11V10H9ZM16 20V13.75H14V20H16ZM21 20V16.25H19V20H21ZM21 16.25C21 15.3217 20.6313 14.4315 19.9749 13.7751L18.5607 15.1893C18.842 15.4706 19 15.8522 19 16.25H21ZM19.9749 13.7751C19.3185 13.1187 18.4283 12.75 17.5 12.75V14.75C17.8978 14.75 18.2794 14.908 18.5607 15.1893L19.9749 13.7751ZM17.5 12.75C16.5717 12.75 15.6815 13.1187 15.0251 13.7751L16.4393 15.1893C16.7206 14.908 17.1022 14.75 17.5 14.75V12.75ZM15.0251 13.7751C14.3687 14.4315 14 15.3217 14 16.25H16C16 15.8522 16.158 15.4706 16.4393 15.1893L15.0251 13.7751Z" fill="black"/>
</svg>
