<svg width="25" height="25" viewBox="0 0 25 25" fill="none" xmlns="http://www.w3.org/2000/svg">
<path d="M4.16602 13.375C4.16602 11.4894 4.16602 10.5466 4.7518 9.96079C5.33759 9.375 6.2804 9.375 8.16602 9.375H16.8327C18.7183 9.375 19.6611 9.375 20.2469 9.96079C20.8327 10.5466 20.8327 11.4894 20.8327 13.375V15.875C20.8327 18.7034 20.8327 20.1176 19.954 20.9963C19.0753 21.875 17.6611 21.875 14.8327 21.875H10.166C7.33759 21.875 5.92337 21.875 5.0447 20.9963C4.16602 20.1176 4.16602 18.7034 4.16602 15.875V13.375Z" stroke="#33363F" stroke-width="2"/>
<path d="M16.6654 8.33333V7.29167C16.6654 4.99048 14.7999 3.125 12.4987 3.125V3.125C10.1975 3.125 8.33203 4.99048 8.33203 7.29167V8.33333" stroke="#33363F" stroke-width="2" stroke-linecap="round"/>
<circle cx="12.4993" cy="15.625" r="2.08333" fill="#33363F"/>
</svg>
