<svg width="219" height="176" viewBox="0 0 219 176" fill="none" xmlns="http://www.w3.org/2000/svg">
<mask id="mask0_5_13935" style="mask-type:alpha" maskUnits="userSpaceOnUse" x="0" y="0" width="219" height="176">
<rect width="219" height="176" fill="#D9D9D9"/>
</mask>
<g mask="url(#mask0_5_13935)">
<line x1="63" y1="98.8008" x2="182.188" y2="98.8008" stroke="white" stroke-width="2"/>
<line x1="32" y1="158.199" x2="151.188" y2="158.199" stroke="white" stroke-width="2"/>
<line x1="4" y1="175" x2="123.188" y2="175" stroke="white" stroke-width="2"/>
<line x1="21" y1="166.6" x2="186.963" y2="166.6" stroke="white" stroke-width="2"/>
<line x1="2" y1="133" x2="121.188" y2="133" stroke="white" stroke-width="2"/>
<line x1="19" y1="149.801" x2="138.188" y2="149.801" stroke="white" stroke-width="2"/>
<line x1="3" y1="141.4" x2="168.963" y2="141.4" stroke="white" stroke-width="2"/>
<line x1="76" y1="107.199" x2="195.188" y2="107.199" stroke="white" stroke-width="2"/>
<line x1="48" y1="124" x2="167.188" y2="124" stroke="white" stroke-width="2"/>
<line x1="65" y1="115.6" x2="230.963" y2="115.6" stroke="white" stroke-width="2"/>
<line x1="46" y1="82" x2="165.188" y2="82" stroke="white" stroke-width="2"/>
<line x1="47" y1="90.4004" x2="212.963" y2="90.4004" stroke="white" stroke-width="2"/>
<line x1="136" y1="17.8008" x2="255.188" y2="17.8008" stroke="white" stroke-width="2"/>
<line x1="105" y1="77.1992" x2="224.188" y2="77.1992" stroke="white" stroke-width="2"/>
<line x1="77" y1="94" x2="196.188" y2="94" stroke="white" stroke-width="2"/>
<line x1="94" y1="85.5996" x2="259.963" y2="85.5996" stroke="white" stroke-width="2"/>
<line x1="75" y1="52" x2="194.188" y2="52" stroke="white" stroke-width="2"/>
<line x1="92" y1="68.8008" x2="211.188" y2="68.8008" stroke="white" stroke-width="2"/>
<line x1="76" y1="60.4004" x2="241.963" y2="60.4004" stroke="white" stroke-width="2"/>
<line x1="149" y1="26.1992" x2="268.188" y2="26.1992" stroke="white" stroke-width="2"/>
<line x1="121" y1="43" x2="240.188" y2="43" stroke="white" stroke-width="2"/>
<line x1="138" y1="34.5996" x2="303.963" y2="34.5996" stroke="white" stroke-width="2"/>
<line x1="119" y1="1" x2="238.188" y2="1" stroke="white" stroke-width="2"/>
<line x1="120" y1="9.40039" x2="285.963" y2="9.40039" stroke="white" stroke-width="2"/>
</g>
</svg>
