<svg width="25" height="25" viewBox="0 0 25 25" fill="none" xmlns="http://www.w3.org/2000/svg">
<path d="M18.75 3.12501V3.12501C18.8661 3.12501 18.9241 3.12501 18.9732 3.12662C20.553 3.17833 21.8217 4.44701 21.8734 6.02685C21.875 6.07592 21.875 6.13395 21.875 6.25001L21.875 8.48215C21.875 8.85029 21.875 9.03436 21.7828 9.16434C21.7502 9.2102 21.7102 9.25024 21.6643 9.28278C21.5344 9.375 21.3503 9.375 20.9821 9.375L15.625 9.375M18.75 3.12501V3.12501C18.6339 3.12501 18.5759 3.12501 18.5268 3.12662C16.947 3.17833 15.6783 4.44701 15.6266 6.02685C15.625 6.07592 15.625 6.13395 15.625 6.25001L15.625 9.375M18.75 3.12501L7.125 3.12501C5.23938 3.12501 4.29657 3.12501 3.71079 3.7108C3.125 4.29658 3.125 5.23939 3.125 7.12501L3.125 21.875L6.25 20.8333L9.375 21.875L12.5 20.8333L15.625 21.875L15.625 9.375" stroke="#33363F" stroke-width="2"/>
<path d="M7.29102 7.29169L11.4577 7.29169" stroke="#33363F" stroke-width="2" stroke-linecap="round"/>
<path d="M8.33398 11.4583H7.29232" stroke="#33363F" stroke-width="2" stroke-linecap="round"/>
<path d="M7.29102 15.625L10.416 15.625" stroke="#33363F" stroke-width="2" stroke-linecap="round"/>
</svg>
