<svg width="30" height="30" viewBox="0 0 30 30" fill="none" xmlns="http://www.w3.org/2000/svg">
<path d="M5 25.0004H4C4 25.5527 4.44772 26.0004 5 26.0004V25.0004ZM10 25.0004V26.0004C10.2652 26.0004 10.5196 25.895 10.7071 25.7075L10 25.0004ZM24.1605 9.37538H25.1605H24.1605ZM20.625 5.83984V6.83984V5.83984ZM5 20.0004L4.29289 19.2933C4.10536 19.4808 4 19.7352 4 20.0004H5ZM17.5821 7.41789C17.1916 7.02737 16.5584 7.02737 16.1679 7.41789C15.7774 7.80842 15.7774 8.44158 16.1679 8.83211L17.5821 7.41789ZM21.1679 13.8321C21.5584 14.2226 22.1916 14.2226 22.5821 13.8321C22.9726 13.4416 22.9726 12.8084 22.5821 12.4179L21.1679 13.8321ZM20 22.75C19.4477 22.75 19 23.1977 19 23.75C19 24.3023 19.4477 24.75 20 24.75V22.75ZM27.5 24.75C28.0523 24.75 28.5 24.3023 28.5 23.75C28.5 23.1977 28.0523 22.75 27.5 22.75V24.75ZM5 26.0004H10V24.0004H5V26.0004ZM10.7071 25.7075L23.8321 12.5825L22.4179 11.1683L9.29289 24.2933L10.7071 25.7075ZM23.8321 12.5825C24.2533 12.1613 24.5874 11.6613 24.8153 11.1111L22.9675 10.3457C22.8401 10.6533 22.6533 10.9328 22.4179 11.1683L23.8321 12.5825ZM24.8153 11.1111C25.0432 10.5608 25.1605 9.97099 25.1605 9.37538H23.1605C23.1605 9.70835 23.0949 10.0381 22.9675 10.3457L24.8153 11.1111ZM25.1605 9.37538C25.1605 8.77977 25.0432 8.18998 24.8153 7.6397L22.9675 8.40507C23.0949 8.71269 23.1605 9.0424 23.1605 9.37538H25.1605ZM24.8153 7.6397C24.5874 7.08943 24.2533 6.58943 23.8321 6.16827L22.4179 7.58248C22.6533 7.81793 22.8401 8.09745 22.9675 8.40507L24.8153 7.6397ZM23.8321 6.16827C23.4109 5.74711 22.9109 5.41302 22.3607 5.18509L21.5953 7.03285C21.9029 7.16027 22.1824 7.34704 22.4179 7.58248L23.8321 6.16827ZM22.3607 5.18509C21.8104 4.95716 21.2206 4.83984 20.625 4.83984V6.83984C20.958 6.83984 21.2877 6.90543 21.5953 7.03285L22.3607 5.18509ZM20.625 4.83984C20.0294 4.83984 19.4396 4.95716 18.8893 5.18509L19.6547 7.03285C19.9623 6.90543 20.292 6.83984 20.625 6.83984V4.83984ZM18.8893 5.18509C18.3391 5.41302 17.8391 5.74711 17.4179 6.16827L18.8321 7.58248C19.0676 7.34704 19.3471 7.16027 19.6547 7.03285L18.8893 5.18509ZM17.4179 6.16827L4.29289 19.2933L5.70711 20.7075L18.8321 7.58248L17.4179 6.16827ZM4 20.0004V25.0004H6V20.0004H4ZM16.1679 8.83211L21.1679 13.8321L22.5821 12.4179L17.5821 7.41789L16.1679 8.83211ZM20 24.75H27.5V22.75H20V24.75Z" fill="white"/>
</svg>
