<svg width="54" height="42" viewBox="0 0 54 42" fill="none" xmlns="http://www.w3.org/2000/svg">
<path fill-rule="evenodd" clip-rule="evenodd" d="M1.62868 1.46047C0.75 2.33915 0.75 3.75336 0.75 6.58178V35.4151C0.75 38.2435 0.75 39.6578 1.62868 40.5364C2.50736 41.4151 3.92157 41.4151 6.75 41.4151H47.25C50.0784 41.4151 51.4926 41.4151 52.3713 40.5364C53.25 39.6578 53.25 38.2435 53.25 35.4151V6.58179C53.25 3.75336 53.25 2.33915 52.3713 1.46047C51.4926 0.581787 50.0784 0.581787 47.25 0.581787H6.75C3.92157 0.581787 2.50736 0.581787 1.62868 1.46047ZM10.0547 11.4164C9.59517 11.1101 8.9743 11.2342 8.66795 11.6938C8.3616 12.1533 8.48577 12.7742 8.9453 13.0805L25.8906 24.3774C26.5624 24.8252 27.4376 24.8252 28.1094 24.3774L45.0547 13.0805C45.5142 12.7742 45.6384 12.1533 45.3321 11.6938C45.0257 11.2342 44.4048 11.1101 43.9453 11.4164L27 22.7133L10.0547 11.4164Z" fill="#222222"/>
</svg>
