<svg width="40" height="40" viewBox="0 0 40 40" fill="none" xmlns="http://www.w3.org/2000/svg">
<g clip-path="url(#clip0_3686_5251)">
<path d="M37.0472 -0.00146484H2.95278C2.16965 -0.00146484 1.4186 0.309631 0.864849 0.863384C0.311096 1.41714 0 2.16819 0 2.95131V37.0458C0 37.8289 0.311096 38.5799 0.864849 39.1337C1.4186 39.6874 2.16965 39.9985 2.95278 39.9985H37.0472C37.8303 39.9985 38.5814 39.6874 39.1352 39.1337C39.6889 38.5799 40 37.8289 40 37.0458V2.95131C40 2.16819 39.6889 1.41714 39.1352 0.863384C38.5814 0.309631 37.8303 -0.00146484 37.0472 -0.00146484ZM11.9222 34.0735H5.90833V14.9708H11.9222V34.0735ZM8.91111 12.3235C8.22894 12.3197 7.56319 12.1139 6.99789 11.732C6.43259 11.3502 5.99307 10.8094 5.7348 10.178C5.47652 9.54661 5.41108 8.85285 5.54672 8.18429C5.68236 7.51573 6.013 6.90233 6.49693 6.4215C6.98085 5.94068 7.59636 5.61398 8.26578 5.48264C8.9352 5.35129 9.62852 5.42119 10.2583 5.68351C10.888 5.94583 11.4259 6.38881 11.8041 6.95656C12.1823 7.5243 12.3839 8.19135 12.3833 8.87354C12.3898 9.33026 12.3042 9.7836 12.1317 10.2065C11.9592 10.6295 11.7033 11.0134 11.3793 11.3353C11.0553 11.6573 10.6697 11.9107 10.2457 12.0805C9.82167 12.2502 9.36778 12.3329 8.91111 12.3235ZM34.0889 34.0902H28.0778V23.6541C28.0778 20.5763 26.7694 19.6263 25.0806 19.6263C23.2972 19.6263 21.5472 20.9708 21.5472 23.7319V34.0902H15.5333V14.9846H21.3167V17.6319H21.3944C21.975 16.4569 24.0083 14.4485 27.1111 14.4485C30.4667 14.4485 34.0917 16.4402 34.0917 22.2735L34.0889 34.0902Z" fill="black"/>
</g>
<defs>
<clipPath id="clip0_3686_5251">
<rect width="40" height="40" fill="white" transform="translate(0 -0.00146484)"/>
</clipPath>
</defs>
</svg>
