<svg width="30" height="30" viewBox="0 0 30 30" fill="none" xmlns="http://www.w3.org/2000/svg">
<path d="M5 5V4C4.62317 4 4.27833 4.21184 4.10799 4.54798C3.93766 4.88412 3.97075 5.28747 4.19359 5.59135L5 5ZM19.6663 25L18.8598 25.5914C19.0482 25.8482 19.3477 26 19.6663 26V25ZM25 25V26C25.3768 26 25.7217 25.7882 25.892 25.452C26.0623 25.1159 26.0293 24.7125 25.8064 24.4086L25 25ZM10.3338 5L11.1402 4.40865C10.9518 4.15177 10.6523 4 10.3338 4V5ZM4.29289 24.2929C3.90237 24.6834 3.90237 25.3166 4.29289 25.7071C4.68342 26.0976 5.31658 26.0976 5.70711 25.7071L4.29289 24.2929ZM14.1671 17.2471C14.5576 16.8566 14.5576 16.2234 14.1671 15.8329C13.7766 15.4424 13.1434 15.4424 12.7529 15.8329L14.1671 17.2471ZM15.8279 12.7579C15.4374 13.1484 15.4374 13.7816 15.8279 14.1721C16.2184 14.5626 16.8516 14.5626 17.2421 14.1721L15.8279 12.7579ZM25.7071 5.70711C26.0976 5.31658 26.0976 4.68342 25.7071 4.29289C25.3166 3.90237 24.6834 3.90237 24.2929 4.29289L25.7071 5.70711ZM4.19359 5.59135L18.8598 25.5914L20.4727 24.4086L5.80641 4.40865L4.19359 5.59135ZM19.6663 26H25V24H19.6663V26ZM25.8064 24.4086L11.1402 4.40865L9.52734 5.59135L24.1936 25.5914L25.8064 24.4086ZM10.3338 4H5V6H10.3338V4ZM5.70711 25.7071L14.1671 17.2471L12.7529 15.8329L4.29289 24.2929L5.70711 25.7071ZM17.2421 14.1721L25.7071 5.70711L24.2929 4.29289L15.8279 12.7579L17.2421 14.1721Z" fill="black"/>
</svg>
